<?xml version="1.0" encoding="UTF-8"?>
<svg id="a" data-name="Layer 1" xmlns="http://www.w3.org/2000/svg" viewBox="0 0 1060.23 276.75">
  <defs>
    <style>
      .b {
        fill: #fff;
      }

      .c {
        fill: #fe4819;
      }
    </style>
  </defs>
  <path class="b" d="m220.81,26.89l5.29-25.32c.44-2.08,3.41-2.08,3.85,0l5.29,25.32c.16.76.76,1.36,1.52,1.52l25.32,5.29c2.08.44,2.08,3.41,0,3.85l-25.32,5.29c-.76.16-1.36.76-1.52,1.52l-5.29,25.32c-.44,2.08-3.41,2.08-3.85,0l-5.29-25.32c-.16-.76-.76-1.36-1.52-1.52l-25.32-5.29c-2.08-.44-2.08-3.41,0-3.85l25.32-5.29c.76-.16,1.36-.76,1.52-1.52Z"/>
  <path class="b" d="m208.95,225.61l4.96-23.75c.41-1.95,3.2-1.95,3.61,0l4.96,23.75c.15.72.71,1.28,1.43,1.43l23.75,4.96c1.95.41,1.95,3.2,0,3.61l-23.75,4.96c-.72.15-1.28.71-1.43,1.43l-4.96,23.75c-.41,1.95-3.2,1.95-3.61,0l-4.96-23.75c-.15-.72-.71-1.28-1.43-1.43l-23.75-4.96c-1.95-.41-1.95-3.2,0-3.61l23.75-4.96c.72-.15,1.28-.71,1.43-1.43Z"/>
  <path class="b" d="m44.07,51.68l8.18-39.3c.67-3.24,5.29-3.24,5.97,0l8.25,39.29c.25,1.19,1.18,2.11,2.36,2.36l39.3,8.18c3.24.67,3.24,5.29,0,5.97l-39.29,8.25c-1.19.25-2.11,1.18-2.36,2.36l-8.18,39.3c-.67,3.24-5.29,3.24-5.97,0l-8.25-39.29c-.25-1.19-1.18-2.11-2.36-2.36L2.43,68.26c-3.24-.67-3.24-5.29,0-5.97l39.29-8.25c1.19-.25,2.11-1.18,2.36-2.36Z"/>
  <g>
    <path class="b" d="m225.45,91.96c-10.26,2.45-29.51,7-39.95,9.5-10.75-2.17-65.38-13.19-76.5-15.43-8.18,4.57-22.75,12.7-31.06,17.34,3.31,3.98,14.16,17.04,17.27,20.79-20.79,3.75-71.17,13.98-92.48,18.06,23.18,8.07,73.39,25.55,96.16,33.49-5.17,23.41-16.7,75.61-21.96,99.43,14.82-15.85,49.22-53.53,63.8-68.75,1.68,4.05,7.14,20.5,8.64,24.95,8.37-4.67,22.83-12.74,31.06-17.34,4.25-11.52,23.3-63.16,27.4-74.27,15.62-15.91,40.03-40.75,55.82-56.83l-38.21,9.08Z"/>
    <g>
      <polygon class="c" points="146.73 178.42 138.86 155.08 137.42 152.5 121.68 133.55 211.85 112.12 211.85 112.12 146.73 178.42"/>
      <polygon class="c" points="141.06 181.59 134.07 159.83 117.19 169.26 106.13 219.34 141.06 181.59"/>
      <polygon class="c" points="116.01 136.72 130.86 154.08 113.98 163.51 65.54 146.64 116.01 136.72"/>
      <polygon class="c" points="188.64 144.17 167.1 202.57 158.66 207.28 150.79 183.93 188.64 144.17"/>
      <polygon class="c" points="172.74 115.68 111.72 103.37 103.28 108.08 119.02 127.03 172.74 115.68"/>
    </g>
  </g>
  <g>
    <path class="c" d="m343.96,175.78h12.16v28.22l21.41-28.22h14.97l-23.95,30.39,24.04,31.3h-15.15l-21.32-29.03v29.03h-12.16v-61.69Z"/>
    <path class="c" d="m404.47,175.78h42.46v11.16h-30.3v13.7h28.22v10.71h-28.22v14.97h30.3v11.16h-42.46v-61.69Z"/>
    <path class="c" d="m476.5,187.12h-18.24v-11.34h48.54v11.34h-18.15v50.35h-12.15v-50.35Z"/>
    <path class="c" d="m519.04,175.78h42.46v11.16h-30.3v13.7h28.22v10.71h-28.22v14.97h30.3v11.16h-42.46v-61.69Z"/>
    <path class="c" d="m575.55,175.78h23.13c13.52,0,22.32,7.62,22.32,19.68,0,9.98-5.89,16.33-15.06,18.51l17.15,23.5h-14.79l-14.88-22.68h-5.72v22.68h-12.15v-61.69Zm22.5,28.85c6.62,0,10.34-3.36,10.34-8.53v-.9c0-5.26-3.72-8.62-10.34-8.62h-10.34v18.05h10.34Z"/>
    <path class="c" d="m633.61,203.63h31.48v11.34h-31.48v-11.34Z"/>
    <path class="c" d="m700.92,174.87c12.25,0,21.41,7.35,21.41,19.32,0,9.62-5.81,15.69-15.79,23.95l-9.52,7.98h25.31v11.34h-42.55v-11.16l19.78-16.96c7.08-6.08,10.43-9.43,10.43-14.7,0-5.71-3.9-8.8-9.34-8.8s-9.62,3.36-9.62,11.43h-12.34c.36-14.24,9.25-22.41,22.22-22.41Z"/>
    <path class="c" d="m737.93,175.78h40.73v10.52l-14.79,13.06c9.43.91,16.88,7.71,16.88,18.6,0,12.07-9.17,20.41-22.5,20.41-12.61,0-21.86-7.71-22.04-21.96h12.34c0,7.8,4.36,10.98,9.89,10.98,5.81,0,9.98-3.45,9.98-9.89s-4.08-10.25-11.97-10.25h-7.35v-7.16l14.97-12.97h-26.13v-11.34Z"/>
  </g>
  <g>
    <path class="b" d="m343.96,36.5h36.48c21.4,0,36.05,12.49,36.05,32.46s-14.65,32.31-36.05,32.31h-17.23v32.89h-19.24V36.5Zm35.9,47.68c11.06,0,16.66-5.89,16.66-14.51v-1.44c0-8.76-5.6-14.65-16.66-14.65h-16.66v30.59h16.66Z"/>
    <path class="b" d="m436.31,36.5h19.24v97.65h-19.24V36.5Z"/>
    <path class="b" d="m479.4,36.5h34.18l28,70.22,6.46,16.51.14-.14-.14-17.66V36.5h18.38v97.65h-34.04l-28-69.94-6.46-16.52-.14.14.14,17.67v68.64h-18.52V36.5Z"/>
    <path class="b" d="m590.28,36.5h34.18l28,70.22,6.46,16.51.14-.14-.14-17.66V36.5h18.38v97.65h-34.04l-28-69.94-6.46-16.52-.14.14.14,17.67v68.64h-18.52V36.5Z"/>
    <path class="b" d="m789.49,134.15h-20.11l-7.75-25.56h-37.2l-7.76,25.56h-20.1l31.02-97.65h31.02l30.87,97.65Zm-33.32-43.37l-8.19-27.14-4.88-17.09h-.29l-4.88,17.09-8.19,27.14h26.43Z"/>
    <path class="b" d="m800.27,85.32c0-31.31,20.39-50.26,47.25-50.26,22.98,0,40.79,14.07,43.51,37.34h-19.82c-2.3-13.21-12.06-19.67-23.84-19.67-16.23,0-27.29,12.06-27.29,30.73v3.74c0,18.67,11.06,30.73,27.29,30.73,11.78,0,21.54-6.46,23.84-19.68h19.82c-2.73,23.12-20.54,37.34-43.51,37.34-26.86,0-47.25-18.96-47.25-50.26Z"/>
    <path class="b" d="m911.58,36.5h19.24v79.7h42.37v17.95h-61.61V36.5Z"/>
    <path class="b" d="m993.02,36.5h67.21v17.66h-47.97v21.69h44.66v16.95h-44.66v23.7h47.97v17.66h-67.21V36.5Z"/>
  </g>
</svg>