<?xml version="1.0" encoding="utf-8"?>
<!-- Generator: Adobe Illustrator 27.5.0, SVG Export Plug-In . SVG Version: 6.00 Build 0)  -->
<svg version="1.1" id="Layer_1" xmlns="http://www.w3.org/2000/svg" xmlns:xlink="http://www.w3.org/1999/xlink" x="0px" y="0px"
	 viewBox="0 0 862 997" style="enable-background:new 0 0 862 997;" xml:space="preserve">
<style type="text/css">
	.st0{fill:#FFFFFF;}
</style>
<circle class="st0" cx="404" cy="334" r="93"/>
<rect y="731" class="st0" width="32" height="198"/>
<rect x="389" y="783" class="st0" width="31" height="146"/>
<path class="st0" d="M74,796c2,5,3,19,3,19v115h30V814c0,0,15-7,30-7c30,0,29,24,29,24v99h31V827c0,0,3-47-59-47
	C111,780,74,796,74,796z"/>
<path class="st0" d="M344,738l-10,27c0,0-19-8-41-8c-21,0-31,9-31,22c0,12,2,16,40,36s50,33,50,63c0,29-30,54-67,54
	c-20,0-39-2-58-10l8-28c0,0,23,9,48,9c22,0,35-12,35-25c0-5,4-20-39-38c-42-18-51-34-51-61s24-52,63-52C320,729,344,738,344,738z"/>
<path class="st0" d="M545,911c-46-7-49-14-35-22c33,3,65-18,65-54c0-11-5-21-9-27c5,1,19,1,19,1v-25h-46c0,0-14-4-24-4
	c-15,0-59,7-59,55c0,17,7,35,28,46c-6,4-16,18-5,33c-14,5-32,16-32,40c0,43,63,42,72,42c29,0,67-12,67-46C586,920,561,913,545,911z
	 M514,807c22,0,31,12,31,28s-9,28-31,28c-16,0-28-12-28-28S498,807,514,807z M517,971c-23,0-40-7-40-19s11-19,23-23c34,6,55,8,55,22
	C555,963,537,971,517,971z"/>
<path class="st0" d="M614,717h31v72c90-33,90,38,90,38v103h-30v-99c0,0-3-42-61-13v112h-30V717z"/>
<path class="st0" d="M780,784h-16v26h16v88c0,0,0,35,40,35c21,0,40-8,40-8l-9-26c-42,18-41-5-41-5v-84h41v-27h-41v-38h-30V784z"/>
<path class="st0" d="M404,457c74,0,103-52,118-85c33-8,69-30,93-46c7,84-63,219-211,219S186,410,193,326c24,15,60,38,93,46
	C301,405,330,457,404,457z"/>
<path class="st0" d="M404,576c140,0,261-125,241-272c26-21,57-54,73-81c81,262-122,443-314,443S9,485,90,224c17,27,47,60,73,81
	C143,451,264,576,404,576z"/>
<path class="st0" d="M244,196c15,14,58,38,79,43c-16,13-37,44-40,66c-15-4-67-36-78-46C208,248,234,202,244,196z"/>
<path class="st0" d="M169,97c12,30,36,64,52,78c-9,8-35,47-40,63c-19-18-49-58-60-81C128,144,160,104,169,97z"/>
<path class="st0" d="M260,34c4,25,32,67,48,78c-15,6-36,18-46,26c-23-22-37-49-47-77C223,53,248,38,260,34z"/>
<path class="st0" d="M564,196c-15,14-58,38-79,43c16,13,37,44,40,66c15-4,67-36,78-46C600,249,574,203,564,196z"/>
<path class="st0" d="M639,98c-12,30-36,64-52,78c9,8,35,47,40,63c19-18,49-58,60-81C680,145,649,105,639,98z"/>
<path class="st0" d="M548,34c-4,25-32,67-48,78c15,6,36,18,46,26c23-22,37-49,47-77C585,53,560,38,548,34z"/>
<path class="st0" d="M404,122c45,0,86,15,117,36c-34,26-75,40-117,39c-43,0-83-14-117-39C317,137,359,122,404,122z"/>
<path class="st0" d="M404,0c30,0,64,4,91,12c-4,29-34,76-91,76s-87-47-91-76C340,5,374,0,404,0"/>
</svg>
