<?xml version="1.0" encoding="utf-8"?>
<!-- Generator: Adobe Illustrator 27.5.0, SVG Export Plug-In . SVG Version: 6.00 Build 0)  -->
<svg version="1.1"
	 id="svg12322" xmlns:cc="http://creativecommons.org/ns#" xmlns:svg="http://www.w3.org/2000/svg" xmlns:dc="http://purl.org/dc/elements/1.1/" xmlns:rdf="http://www.w3.org/1999/02/22-rdf-syntax-ns#"
	 xmlns="http://www.w3.org/2000/svg" xmlns:xlink="http://www.w3.org/1999/xlink" x="0px" y="0px" viewBox="0 0 1000 440"
	 style="enable-background:new 0 0 1000 440;" xml:space="preserve">
<style type="text/css">
	.st0{fill:#FFFFFF;}
</style>
<g id="layer1" transform="translate(0,-612.36216)">
	<g id="g26" transform="matrix(8.6056867,0,0,-8.6056867,370.89794,651.66385)">
		<path id="path28" class="st0" d="M0,0h-7l-5.7-18c2.1-1,4-2.2,5.9-3.6L0,0z"/>
	</g>
	<g id="g30" transform="matrix(8.6056867,0,0,-8.6056867,225.06252,924.5235)">
		<path id="path32" class="st0" d="M0,0h7l2,6.3C7.1,7.6,5.1,8.8,3.1,9.8L0,0z"/>
	</g>
	<g id="g34" transform="matrix(8.6056867,0,0,-8.6056867,302.15572,870.37908)">
		<path id="path36" class="st0" d="M0,0l0.6,1.9c-1.8,1.3-3.8,2.5-5.9,3.6l-0.6-2C-3.8,2.5-1.9,1.3,0,0"/>
	</g>
	<g id="g38" transform="matrix(8.6056867,0,0,-8.6056867,150.71973,773.7605)">
		<path id="path40" class="st0" d="M0,0l4.5,14.2h-7L-6.9,0.2c0.7,0,1.4,0.1,2.1,0.1C-3.2,0.3-1.6,0.2,0,0"/>
	</g>
	<g id="g42" transform="matrix(8.6056867,0,0,-8.6056867,139.7819,808.56015)">
		<path id="path44" class="st0" d="M0,0l0.7,2.1c-1.6,0.2-3.2,0.3-4.8,0.3c-0.7,0-1.4,0-2.1-0.1l-0.7-2.2c0.8,0.1,1.7,0.1,2.6,0.1
			C-2.9,0.2-1.4,0.2,0,0"/>
	</g>
	<g id="g46" transform="matrix(8.6056867,0,0,-8.6056867,103.3351,924.5235)">
		<path id="path48" class="st0" d="M0,0l4.2,13.5c-1.4,0.2-2.9,0.2-4.4,0.2c-0.9,0-1.7,0-2.6-0.1L-7,0H0z"/>
	</g>
	<g id="g50" transform="matrix(8.6056867,0,0,-8.6056867,312.56947,878.06743)">
		<path id="path52" class="st0" d="M0,0l-1.7-5.4h7L5.4-5C3.8-3.2,2-1.5,0,0"/>
	</g>
	<g id="g54" transform="matrix(8.6056867,0,0,-8.6056867,359.10815,921.15185)">
		<path id="path56" class="st0" d="M0,0l0.6,1.8c-1.6,1.9-3.4,3.6-5.4,5.1L-5.4,5C-3.5,3.5-1.6,1.8,0,0"/>
	</g>
	<g id="g58" transform="matrix(8.6056867,0,0,-8.6056867,369.1269,889.26175)">
		<path id="path60" class="st0" d="M0,0l8.7,27.6h-7L-5.4,5.1C-3.4,3.6-1.6,1.9,0,0"/>
	</g>
	<g id="g62" transform="matrix(8.6056867,0,0,-8.6056867,261.99728,651.66385)">
		<path id="path64" class="st0" d="M0,0h-7l-4.5-14.4c2.2-0.3,4.4-0.9,6.5-1.6L0,0z"/>
	</g>
	<g id="g66" transform="matrix(8.6056867,0,0,-8.6056867,208.11362,823.11153)">
		<path id="path68" class="st0" d="M0,0l0.6,2c-2.1,0.7-4.3,1.2-6.5,1.6l-0.7-2.1C-4.3,1.2-2.1,0.7,0,0"/>
	</g>
	<g id="g70" transform="matrix(8.6056867,0,0,-8.6056867,116.16186,924.5235)">
		<path id="path72" class="st0" d="M0,0h7l3.7,11.8c-2.1,0.7-4.3,1.2-6.5,1.5L0,0z"/>
	</g>
	<g id="g74" transform="matrix(8.6056867,0,0,-8.6056867,942.60987,897.97244)">
		<path id="path76" class="st0" d="M0,0L0,0l-3.8,6.6h-2.1v-9.5H-4v6.8h0l3.9-6.8h2v9.5H0V0z M-14.3,1.9c0,2.7,1.5,3.3,2.6,3.3
			s2.6-0.7,2.6-3.3c0-2.7-1.5-3.3-2.6-3.3S-14.3-0.8-14.3,1.9 M-16.3,1.9c0-4.5,3.3-5,4.6-5s4.6,0.5,4.6,5c0,4.5-3.3,5-4.6,5
			S-16.3,6.3-16.3,1.9 M-17.5,6.6h-2v-9.5h2V6.6z M-23.2,4.9h2.9v1.7H-28V4.9h2.9v-7.8h2V4.9z M-31.7,4.5L-31.7,4.5l1.2-3.8H-33
			L-31.7,4.5L-31.7,4.5z M-33.5-0.9h3.5l0.6-2h2.2l-3.4,9.5h-2.3l-3.4-9.5h2.1C-34.2-2.9-33.5-0.9-33.5-0.9z M-38.3,4.9h2.9v1.7
			h-7.7V4.9h2.9v-7.8h2V4.9z M-51.4,0c0-1.2,0.6-3.2,4.1-3.2c0.8,0,3.8,0.3,3.8,3.1c0,1.7-1.2,2.2-2.5,2.6l-2.3,0.6
			c-0.4,0.1-1,0.3-1,1c0,0.9,0.9,1.1,1.7,1.1c1.7,0,1.9-1,2-1.4h1.9c0,1.2-0.8,3.1-3.7,3.1c-3.1,0-3.7-1.9-3.7-2.9
			c0-2.1,1.5-2.4,3-2.8l1-0.2c1-0.2,1.7-0.4,1.7-1.2c0-1-1-1.2-2-1.2c-1.7,0-2,1-2,1.5L-51.4,0L-51.4,0z"/>
	</g>
	<g id="g78" transform="matrix(8.6056867,0,0,-8.6056867,956.02703,711.83397)">
		<path id="path80" class="st0" d="M0,0h-9.3v-12.6h9.6v2.2h-7v3.3h6.1v2.2h-6.1v2.6H0L0,0z M-10.2-4.1c-0.1,1.9-1.7,4.4-5.4,4.4
			c-3.2,0-5.8-2.2-5.8-6.6c0-4.3,2.4-6.6,5.8-6.6c3.2,0,5,1.9,5.5,4.6h-2.6c-0.3-1.5-1.3-2.4-2.8-2.4c-2.2,0-3.1,2-3.1,4.3
			c0,3.6,1.9,4.4,3.1,4.4c2.2,0,2.6-1.4,2.8-2.2C-12.8-4.1-10.2-4.1-10.2-4.1z M-27-2.8L-27-2.8l1.6-5h-3.2L-27-2.8z M-29.3-10h4.7
			l0.8-2.6h2.9L-25.4,0h-3L-33-12.6h2.8L-29.3-10L-29.3-10z M-38.9-5.9v3.7h2.1c1.6,0,2.3-0.5,2.3-1.7c0-0.6,0-2-2-2H-38.9
			L-38.9-5.9z M-38.9-8h3c3.4,0,4,2.9,4,4c0,2.5-1.5,4-3.9,4h-5.8v-12.6h2.6L-38.9-8L-38.9-8z M-52.9-8.7c0-1.6,0.8-4.2,5.4-4.2
			c1.1,0,5,0.3,5,4.1c0,2.3-1.6,3-3.3,3.4l-3.1,0.8c-0.5,0.1-1.3,0.3-1.3,1.3c0,1.1,1.2,1.5,2.2,1.5c2.3,0,2.5-1.3,2.6-1.9h2.5
			c0,1.5-1.1,4.1-4.9,4.1c-4.1,0-4.8-2.5-4.8-3.9c0-2.8,2-3.2,4-3.7l1.4-0.3c1.3-0.3,2.3-0.6,2.3-1.6c0-1.3-1.4-1.6-2.6-1.6
			c-2.3,0-2.7,1.3-2.7,2L-52.9-8.7L-52.9-8.7z"/>
	</g>
	<g id="g82" transform="matrix(8.6056867,0,0,-8.6056867,939.00668,652.70601)">
		<path id="path84" class="st0" d="M0,0h-1v-4.6h3.2v0.8H0V0z M-3.9-1L-3.9-1l0.6-1.8h-1.2C-4.5-2.8-3.9-1-3.9-1z M-4.7-3.6H-3
			l0.3-0.9h1L-3.3,0h-1.1l-1.6-4.6h1L-4.7-3.6z M-7.7-3.2L-7.7-3.2L-9.5,0h-1v-4.6h0.9v3.3h0l1.9-3.3h1V0h-0.9
			C-7.7,0-7.7-3.2-7.7-3.2z M-14.9-2.3c0,1.3,0.7,1.6,1.2,1.6c0.5,0,1.2-0.3,1.2-1.6s-0.7-1.6-1.2-1.6C-14.2-3.9-14.9-3.6-14.9-2.3
			 M-15.8-2.3c0-2.1,1.6-2.4,2.2-2.4c0.6,0,2.2,0.3,2.2,2.4c0,2.1-1.6,2.4-2.2,2.4S-15.8-0.1-15.8-2.3 M-16.7,0h-1v-4.6h1V0z
			 M-19.8-0.8h1.4V0h-3.7v-0.8h1.4v-3.8h1V-0.8z M-24.2-1L-24.2-1l0.6-1.8h-1.2C-24.8-2.8-24.2-1-24.2-1z M-25.1-3.6h1.7l0.3-0.9h1
			L-23.7,0h-1.1l-1.6-4.6h1L-25.1-3.6L-25.1-3.6z M-28-3.2L-28-3.2L-29.9,0h-1v-4.6h0.9v3.3h0l1.9-3.3h1V0H-28V-3.2z M-34.7-2v1.2
			h1.2c0.6,0,0.7-0.4,0.7-0.6c0-0.5-0.2-0.6-0.7-0.6H-34.7z M-35.6-4.6h0.9v1.8h1c0.7,0,0.7-0.2,0.7-0.9c0-0.5,0-0.7,0.1-0.9h1.1
			v0.1C-32-4.4-32-4.2-32-3.5c0,0.9-0.2,1-0.6,1.2c0.5,0.2,0.7,0.6,0.7,1.1c0,0.4-0.2,1.3-1.4,1.3h-2.3L-35.6-4.6L-35.6-4.6z
			 M-36.6,0H-40v-4.6h3.5v0.8h-2.5v1.2h2.2v0.8h-2.2v1h2.4L-36.6,0L-36.6,0z M-42.1-0.8h1.4V0h-3.7v-0.8h1.4v-3.8h1V-0.8z
			 M-46.1-3.2L-46.1-3.2L-47.9,0h-1v-4.6h0.9v3.3h0l1.9-3.3h1V0h-0.9V-3.2z M-50,0h-1v-4.6h1V0z"/>
	</g>
	<g id="g86" transform="matrix(8.6056867,0,0,-8.6056867,950.44267,994.39557)">
		<path id="path88" class="st0" d="M0,0v-2h0.9v4.6H0V0.8h-1.8v1.7h-0.9V-2h0.9v2H0z M-4.7,1.7h1.4v0.8h-3.7V1.7h1.4V-2h0.9V1.7z
			 M-10.4,0.5v1.2h1.2c0.6,0,0.7-0.4,0.7-0.6c0-0.5-0.2-0.6-0.7-0.6L-10.4,0.5z M-11.4-2h0.9v1.8h1c0.7,0,0.7-0.2,0.7-0.9
			c0-0.5,0-0.7,0.1-0.9h1v0.1C-7.8-1.9-7.8-1.7-7.8-1c0,0.9-0.2,1-0.6,1.2c0.4,0.2,0.7,0.6,0.7,1.1c0,0.4-0.2,1.3-1.4,1.3h-2.3
			L-11.4-2z M-14.2,1.5L-14.2,1.5l0.6-1.8h-1.2L-14.2,1.5z M-15-1.1h1.7l0.3-0.9h1l-1.6,4.6h-1.1L-16.4-2h1L-15-1.1z M-17.1,2.5
			h-3.3V-2h3.4v0.8h-2.5v1.2h2.2v0.8h-2.2v1h2.4V2.5z M-23,2.5h-3.3V-2h3.4v0.8h-2.5v1.2h2.2v0.8h-2.2v1h2.4V2.5z M-28.4,0v-2h0.9
			v4.6h-0.9V0.8h-1.8v1.7h-0.9V-2h0.9v2H-28.4z M-33.1,1.7h1.4v0.8h-3.7V1.7h1.4V-2h0.9L-33.1,1.7z M-40.4,0.5v1.2h1.2
			c0.6,0,0.7-0.4,0.7-0.6c0-0.5-0.2-0.6-0.7-0.6L-40.4,0.5z M-41.4-2h0.9v1.8h1c0.7,0,0.7-0.2,0.7-0.9c0-0.5,0-0.7,0.1-0.9h1v0.1
			c-0.2,0.1-0.2,0.2-0.2,0.9c0,0.9-0.2,1-0.6,1.2c0.4,0.2,0.7,0.6,0.7,1.1c0,0.4-0.2,1.3-1.4,1.3h-2.3L-41.4-2z M-45.6,0.2
			c0,1.3,0.7,1.6,1.2,1.6c0.5,0,1.2-0.3,1.2-1.6s-0.7-1.6-1.2-1.6C-44.9-1.4-45.6-1-45.6,0.2 M-46.6,0.2c0-2.1,1.6-2.4,2.2-2.4
			c0.6,0,2.2,0.3,2.2,2.4s-1.6,2.4-2.2,2.4C-45,2.6-46.6,2.4-46.6,0.2 M-49.3-0.1h2v0.8h-2v1h2.3v0.8h-3.2V-2h0.9V-0.1z M-55.8,0v-2
			h0.9v4.6h-0.9V0.8h-1.8v1.7h-0.9V-2h0.9v2H-55.8z M-60.6,1.7h1.4v0.8h-3.7V1.7h1.4V-2h0.9V1.7z M-66.3,0.5v1.2h1.2
			c0.6,0,0.7-0.4,0.7-0.6c0-0.5-0.2-0.6-0.7-0.6L-66.3,0.5z M-67.2-2h0.9v1.8h1c0.7,0,0.7-0.2,0.7-0.9c0-0.5,0-0.7,0.1-0.9h1v0.1
			c-0.2,0.1-0.2,0.2-0.2,0.9c0,0.9-0.2,1-0.6,1.2c0.4,0.2,0.7,0.6,0.7,1.1c0,0.4-0.2,1.3-1.4,1.3h-2.3L-67.2-2z M-70,1.5L-70,1.5
			l0.6-1.8h-1.2L-70,1.5z M-70.9-1.1h1.7l0.3-0.9h1l-1.6,4.6h-1.1L-72.2-2h1L-70.9-1.1z M-72.9,2.5h-3.3V-2h3.4v0.8h-2.5v1.2h2.2
			v0.8h-2.2v1h2.4V2.5z M-78.9,2.5h-3.3V-2h3.4v0.8h-2.5v1.2h2.2v0.8h-2.2v1h2.4V2.5z M-84.2,0v-2h0.9v4.6h-0.9V0.8H-86v1.7h-0.9V-2
			h0.9v2H-84.2z M-88.9,1.7h1.4v0.8h-3.7V1.7h1.4V-2h0.9V1.7z M-95.5-0.1h2v0.8h-2v1h2.3v0.8h-3.2V-2h0.9L-95.5-0.1z M-99.5-0.1h2
			v0.8h-2v1h2.3v0.8h-3.2V-2h0.9L-99.5-0.1z M-104.7,0.2c0,1.3,0.7,1.6,1.2,1.6c0.5,0,1.2-0.3,1.2-1.6s-0.7-1.6-1.2-1.6
			C-104-1.4-104.7-1-104.7,0.2 M-105.6,0.2c0-2.1,1.6-2.4,2.2-2.4c0.6,0,2.2,0.3,2.2,2.4s-1.6,2.4-2.2,2.4
			C-104.1,2.6-105.6,2.4-105.6,0.2"/>
	</g>
</g>
</svg>
