<?xml version="1.0" encoding="utf-8"?>
<!-- Generator: Adobe Illustrator 27.5.0, SVG Export Plug-In . SVG Version: 6.00 Build 0)  -->
<svg version="1.1"
	 id="圖層_1" xmlns:inkscape="http://www.inkscape.org/namespaces/inkscape" xmlns:sodipodi="http://sodipodi.sourceforge.net/DTD/sodipodi-0.dtd" xmlns:cc="http://creativecommons.org/ns#" xmlns:svg="http://www.w3.org/2000/svg" xmlns:dc="http://purl.org/dc/elements/1.1/" xmlns:rdf="http://www.w3.org/1999/02/22-rdf-syntax-ns#"
	 xmlns="http://www.w3.org/2000/svg" xmlns:xlink="http://www.w3.org/1999/xlink" x="0px" y="0px" viewBox="0 0 200 201.7"
	 style="enable-background:new 0 0 200 201.7;" xml:space="preserve">
<style type="text/css">
	.st0{fill-rule:evenodd;clip-rule:evenodd;fill:#FFFFFF;}
</style>
<sodipodi:namedview  bordercolor="#666666" borderopacity="1" fit-margin-bottom="0" fit-margin-left="0" fit-margin-right="0" fit-margin-top="0" gridtolerance="10" guidetolerance="10" id="namedview257" inkscape:current-layer="圖層_1" inkscape:cx="63.194822" inkscape:cy="114.32178" inkscape:pageopacity="0" inkscape:pageshadow="2" inkscape:window-height="729" inkscape:window-maximized="1" inkscape:window-width="1408" inkscape:window-x="-8" inkscape:window-y="-8" inkscape:zoom="2.2530838" objecttolerance="10" pagecolor="#ffffff" showgrid="false">
	</sodipodi:namedview>
<g id="g3" transform="matrix(0.19251169,0,0,0.19251169,17.892421,69.671277)">
	<g id="g5">
		<path id="path9" inkscape:connector-curvature="0" class="st0" d="M946,161.9c-0.5-1.7-1-3.3-1.6-5.4c-9.7,0.5-19.6,1-30,1.5
			c-0.4-4.3-0.7-8.3-1.2-13c10.5-0.7,20.6-1.4,30.8-2c0-2.8,0-5.1,0-8.1c-23,1.1-45.6,2.3-68.5,3.4c0,2.8,0,5.1,0,7.7
			c9.8,0,19.5,0,30,0c0.2,3.7,0.3,7.7,0.5,12.3c-10,0.5-19.5,1.1-29.4,1.6c0,2.6,0,5,0,7.9c4.9,0,9.5,0.2,14.1,0
			c17.1-0.8,34.1-1.7,51.2-2.6c1.3-0.1,2.7-0.5,4-0.8C946,163.4,946,162.7,946,161.9z"/>
		<path id="path11" inkscape:connector-curvature="0" class="st0" d="M415.9,685.6c1.6-0.5,3.2-1.1,5.2-1.8
			c-0.5-9.6-0.9-19.4-1.4-29.8c4.4-0.4,8.7-0.9,13.9-1.4c0.6,10.5,1.1,20.5,1.7,31.3c2.9-0.1,5.3-0.3,8.4-0.4
			c-1.2-23-2.3-45.6-3.4-68.3c-2.8,0-5.3,0-8.4,0c0.4,10.1,0.9,19.7,1.3,29.9c-4.6,0-8.8,0-13.9,0c-0.5-9.4-1-19.1-1.5-28.8
			c-2.9,0-5.4,0-8.5,0c0.8,15.6,1.6,30.8,2.4,46c0.5,7.8,1.2,15.5,1.8,23.3C414.3,685.6,415.1,685.6,415.9,685.6z"/>
		<path id="path13" inkscape:connector-curvature="0" class="st0" d="M-92.9,170.1c2.2,0.4,4.4,1.2,6.7,1.2
			c8.6,0.1,17.2,0.1,26.7,1.4c-2.6,1.9-5,4.3-7.9,5.4c-6.1,2.3-12.3,4.2-18.6,5.5c-5.4,1.1-6.9,3.6-4.9,8.6
			c9.5,0.2,28.5-6.4,35.1-12.5c7.1,8.1,16.1,8.5,24.9,3.9c8.8-4.6,8.3-13.4,7.2-22.7c-23,0.7-46.1,1.4-69.2,2.1
			C-92.9,165.4-92.9,167.8-92.9,170.1z M-52.7,170.1c7.7,0,14.7,0,22,0c-2.3,6.2-6,8.4-13,7.9C-48,177.7-51.8,176.5-52.7,170.1z"/>
		<path id="path15" inkscape:connector-curvature="0" class="st0" d="M456-361.9c-4.7,5.5-9.3,10.9-14.3,16.8c1.2,1,2.9,2.2,4.4,3.4
			c3.7-2.5,6.9-6,10.7-6.8c6.4-1.5,5.2,5.2,7.2,9c1.8-0.2,3.7-0.4,5.9-0.7c-0.2-2.4-0.3-4.5-0.5-6.8c2.9,0,5.6,0,8.6,0
			c0.1-1.8,0.2-3.4,0.4-5.7c-5.9-0.6-11.4-1.3-17.6-1.9c0.8-1.7,1.4-2.9,2-4c-2-1.1-3.8-2.2-5.6-3.2
			C456.8-361.9,456.4-361.9,456-361.9L456-361.9z"/>
		<path id="path17" inkscape:connector-curvature="0" class="st0" d="M836.2,166.2c0.2-224.7-184.6-409.1-409.8-409.1
			C201.5-242.9,16.7-59,17,165.9C17.3,393.8,203.2,575,426.7,574.8C652.1,574.6,836,391,836.2,166.2z M426.4,564.3
			c-219.8,0-398.6-178.3-398.9-397.8C27.2-52.7,206.4-232.3,425.4-232.3c221.3,0,400,178.2,400.1,399
			C825.6,385.7,646.4,564.3,426.4,564.3z"/>
		<path id="path19" inkscape:connector-curvature="0" class="st0" d="M80.4-221.2c1.9,2.2,3.4,4,5.5,6.4c-7.8,6.7-15.5,13.2-23.5,20
			c12.9,15.4,25.4,30.4,38.3,45.8c2.2-1.8,3.9-3.2,6.1-5.1c-4.7-5.7-9.3-11.2-14.9-18c10.2,1.6,10.9-4.8,11.4-10.7
			c0.5-6,0.1-12,0.1-17.8c7.4,0.8,14.5,1.6,21.7,2.5c5.2,0.6,8.5-0.7,7.6-6.9c9.7,6.7,9.8,9,0.9,18.4c2.2,1.2,4.4,2.4,6.6,3.7
			c1.2-0.9,2.3-1.7,3.4-2.6c8.6-6.9,9-9.8,2-18.2c-9.9-11.9-19.9-23.7-29.9-35.7c-8,6.6-15.5,12.8-23.3,19.2
			c-3.4-3.8-6.4-7.4-10-11.4c-6.1,5.1-12,10-18.3,15.2c1.4,1.7,2.6,3.2,4.1,5C72.3-214.7,76-217.7,80.4-221.2z M89.9-208.6
			c8.5,10.6,8.8,25.3,1.1,35.5c-5.9-7.1-11.7-14.1-17.9-21.5C78.9-199.4,84.3-203.9,89.9-208.6z M97.2-214.6
			c5.9-4.9,11.4-9.4,17-14.1c6,7.3,11.5,14,17.6,21.3C118.6-204.7,107.6-206.2,97.2-214.6z"/>
		<path id="path21" inkscape:connector-curvature="0" class="st0" d="M392.4-302.1c6.2-0.8,12.1-1.6,18.4-2.4c0-2.2,0-4.2,0-6.6
			c-6.7,0.7-12.8,1.4-19.1,2c-1.8-3.4-1.4-5.3,2.7-5.6c4.3-0.3,8.5-0.8,12.9-1.2c0-2.2,0-3.8,0-6.2c-4.8,0.4-9.3,1-13.7,1.1
			c-1.3,0-2.7-1.3-4-1.9c1.2-0.9,2.2-2.4,3.5-2.7c4.2-0.9,8.5-1.3,12.7-1.9c2.1-4.5-5.1-13.8,7.2-12.1c-0.3-2.4-0.5-4.3-0.7-6.6
			c-2.3,0.1-4.3,0.2-7.1,0.4c-0.5-3.1-1.1-6.3-1.8-10.4c-5.2,0.5-10.6,1-15.9,1.5c0.2-0.5,0.4-1.1,0.7-1.6c-2.9-1.4-5.7-2.8-9.4-4.6
			c-0.4,3.3-0.6,5-0.8,6.9c-3.4,0.4-6.7,1.2-10,1.2c-4.7,0.1-5.3,2.1-3.8,5.5c5,2.7,11.3-3.1,15.3,1.9c-0.1,0.7-0.2,1.4-0.3,2.1
			c-6.2,0.8-12.3,1.7-18.7,2.5c0,1.9,0,3.6,0,6.1c6.5-0.5,12.7-1,19-1.5c1.9,3.4,1,5.1-2.8,5.4c-2,0.1-3.9,0.5-5.9,0.4
			c-4.8,0-5.8,2.3-4.1,6.6c4.9,0,9.8,0,14.7,0.1c0.1,0,0.2,2.1,0.3,3.7c-5.1,0.7-9.9,1.3-15.2,2c0.1,1.9,0.2,3.5,0.3,5.8
			c5.2-0.3,10.1-0.6,15.1-1c1.5,2.7,1.5,4.6-2.4,5c-4.7,0.4-9.3,1-14.5,1.6c0.2,2.3,0.4,4.3,0.7,6.6c6.2-0.6,11.8-1.2,17.6-1.8
			c0.6,2.3,1.2,4.3,1.9,6.8c2.1-0.2,4.2-0.3,6.5-0.5C392-297.6,392.2-299.6,392.4-302.1z M397.6-338c1,5.9-0.2,6.5-8.9,5.3
			c-0.1-1.3-0.2-2.6-0.3-4.3C391.6-337.3,394.4-337.6,397.6-338z M392.5-342.9c-2.2-1.3-3.8-2.2-5.4-3.2c1.9-0.9,3.6-2.4,5.6-2.6
			c1.4-0.2,3,1.2,4.5,1.9C395.8-345.7,394.4-344.5,392.5-342.9z"/>
		<path id="path23" inkscape:connector-curvature="0" class="st0" d="M584.3-257.1c2.4,1,4.3,1.8,7,2.9c4-12,7.9-23.7,11.9-35.9
			c3.5,0.9,6.5,1.7,10.1,2.7c0.8-2.1,1.6-4.2,2.5-6.4c-3.6-1.3-6.6-2.4-10.3-3.7c2.3-7,4.4-13.6,6.6-20.4c2.6,0.7,4.7,1.2,6.9,1.8
			c0.7-2.1,1.4-4.1,2.2-6.7c-13.2-4.2-26.1-8.4-39.5-12.7c-0.8,2.4-1.4,4.2-2.2,6.3c2.2,1,4.1,1.9,6.5,3c-2.1,6.7-4.2,13.3-6.5,20.3
			c-3.4-1-6.3-1.8-9.8-2.8c-0.8,2.1-1.5,4-2.3,6.4c3.1,1.3,5.9,2.5,8.9,3.8c-4.6,10.8-10.8,19.9-21.9,25.6c1.3,2.2,2.4,4.1,3.8,6.5
			c9.6-5,16.3-12.4,21.3-21.4c5.3-9.4,5.2-9.4,15.7-4.4C591.8-280.8,588.1-269.1,584.3-257.1L584.3-257.1z M593.6-324.3
			c4.1,1.5,7.5,2.7,11.1,4c-2.3,7-4.4,13.4-6.7,20.3c-4-1.3-7.5-2.3-11.3-3.5C589.1-310.6,591.2-317.1,593.6-324.3z"/>
		<path id="path25" inkscape:connector-curvature="0" class="st0" d="M480.2-308.1c-3.5-8.9,6.6-12.7,6.3-20.7
			c3.9,0.3,7.3,0.6,11.3,1c-0.2,3-0.4,5.7-0.6,8.3c-0.5,7.7,5.1,11.9,12.3,8.6c3.1-1.5,5.5-4.6,9.1-7.7c-3-1.3-4.7-2.1-6.9-3.1
			c-1.5,2.3-3,4.5-4.5,6.8c-0.9-0.4-1.8-0.8-2.7-1.2c0.3-5.6,0.5-11.1,0.8-17.2c-8.1-0.8-15.8-1.6-23.4-2.4
			c-3.8,8.9-7.5,17.6-11.3,26.7c-10.1-1-20.2-2-30.8-3.1c-0.3,2.1-0.6,3.9-1,6.3c9.4,1.1,18.4,2.1,27.4,3.2c0.1,0.6,0.2,1.2,0.3,1.7
			c-9.4,2.7-18.8,5.5-28.4,8.2c1.1,3.8,3.2,5.4,7.3,4.2c8-2.3,16.1-4.3,24.5-6.5c-0.3,3.8-0.6,7.8-1,12.3c2.3,0.3,4.4,0.6,7,0.9
			c0.6-4.5,1.1-8.5,1.7-13.1c9,4.9,17.8,9.7,26.7,14.6c1.6-2,2.9-3.5,4.3-5.3c-9.2-4.8-18.1-9.4-27-14c0.1-0.5,0.3-1,0.4-1.5
			c9.5,0.9,19.1,1.8,29.1,2.8c0.2-2.3,0.4-4.1,0.6-6.3C501-305.8,490.7-307,480.2-308.1z"/>
		<path id="path27" inkscape:connector-curvature="0" class="st0" d="M-27,107.3c-0.4,4-0.8,7.3-1.2,11c2.5,0.4,4.5,0.7,7.3,1.2
			c1.2-9.7,2.3-19,3.6-28.2c0.3-2.4,0.9-5,1.9-7.2c3.2-7,2.3-14.3-4-18.4c-16.1-10.6-34-13.8-52.9-10.3c-5.6,1-9.1,5.1-10.6,10.7
			c-2,7.4,0.8,11.3,8.7,11.9c0.2-0.3,0.6-0.6,0.5-0.8c-3.8-10.6-0.5-16.2,10.6-15.1c11.1,1.1,22.1,3.4,32.8,6.4
			c9.3,2.7,10.7,8.6,5.4,16.6c-0.5,0.7-0.5,1.8-0.5,2.7c-0.1,3.2,0,6.4,0,10.9c-20.6-2.4-40.6-4.7-61.2-7.1
			c-0.2,2.8-0.4,5.2-0.6,8.3C-67.2,102.4-47.4,104.8-27,107.3z"/>
		<path id="path29" inkscape:connector-curvature="0" class="st0" d="M134.9,508.1c-1.8-1.5-3.4-2.8-5.4-4.6
			c-14.9,17.2-29.7,34.2-44.7,51.6c2.1,1.8,3.8,3.3,5.9,5.1c9.2-10.6,18.1-20.9,27-31.1c0.3,0.2,0.6,0.3,0.8,0.5
			c-4.7,11.8-9.3,23.6-14.1,35.3c-1.7,4.2-1.9,7.6,3.9,9.9c14.6-16.8,29.4-33.9,44.5-51.2c-2-1.8-3.8-3.3-5.9-5.2
			c-9.4,10.8-18.5,21.3-27.5,31.8c-0.2-0.1-0.5-0.2-0.7-0.3C124.1,536,129.5,522.2,134.9,508.1z"/>
		<path id="path31" inkscape:connector-curvature="0" class="st0" d="M514.7,606.2c-2.8,0.5-4.9,0.8-7.6,1.3
			c2.6,13.8,5.2,27.2,7.8,40.5c-0.3,0.2-0.5,0.3-0.8,0.5c-1.5-2.4-3.1-4.8-4.6-7.3c-5.1-8.6-10.4-17.1-15.1-25.9
			c-2.4-4.5-5-5.4-9.7-2.7c4.2,21.9,8.5,44,12.8,66.3c2.6-0.4,4.7-0.8,7.5-1.2c-2.6-13.7-5.2-27.1-7.7-40.4c0.3-0.1,0.5-0.3,0.8-0.4
			c4.8,8,9.5,16,14.3,24.1c1.7,2.9,3.6,5.6,5,8.7c2.1,4.7,5.2,5.8,10.1,3.5C523.4,651.1,519.1,629,514.7,606.2L514.7,606.2z"/>
		<path id="path33" inkscape:connector-curvature="0" class="st0" d="M803.1,456.8c12.1,4,24.2,7.7,36.2,11.9
			c4.3,1.5,7.6,1.8,9.6-4.1c-17.5-13.7-35.3-27.7-53.6-42c-1.5,1.8-2.9,3.5-4.8,5.8c11.5,9,22.5,17.6,33.5,26.3
			c-0.1,0.2-0.2,0.4-0.4,0.7c-12.6-4.1-25.4-8-37.9-12.6c-4.7-1.7-7.4-1-9.1,4.2c17.6,13.8,35.3,27.7,53.6,42c1.6-1.9,3-3.6,4.8-5.8
			c-11-8.7-21.8-17.1-32.6-25.5C802.7,457.4,802.9,457.1,803.1,456.8L803.1,456.8z"/>
		<path id="path35" inkscape:connector-curvature="0" class="st0" d="M865.1,62.5c21.9-6.2,43.6-12.4,65.9-18.7
			c-0.7-2.3-1.2-4.2-2-6.7c-13.6,3.9-26.8,7.6-40.1,11.4c-0.1-0.3-0.3-0.6-0.4-0.8c11.9-8.9,23.8-17.8,35.9-26.8
			c-0.5-1.9-1-3.7-1.7-6.3c-22.1,6.3-43.9,12.4-66.1,18.7c0.4,2.1,0.7,3.9,1.3,6.8c13.8-3.9,27.2-7.6,40.6-11.4
			c0.2,0.3,0.3,0.5,0.5,0.8c-6.6,4.9-13.1,9.9-19.7,14.8c-4.2,3.2-8.5,6.3-12.8,9.5C862.7,56.7,862.7,56.7,865.1,62.5L865.1,62.5z"
			/>
		<path id="path37" inkscape:connector-curvature="0" class="st0" d="M753.5,503.1c7.6,2.5,15.1,5,23.7,7.8
			c-3.3-8.3-6.3-15.7-9.3-23.2c0.2-0.2,0.4-0.3,0.7-0.5c11.6,10.8,23.2,21.7,35.8,33.4c1.7-1.7,3.1-3.1,4.9-4.8
			c-17.3-16.2-33.6-31.4-50-46.8c-4.4,2.1-5.5,4.9-3.3,9.4c3.2,6.5,5.8,13.3,9.2,21c-7.7-2.6-14.6-4.6-21.3-7.5
			c-4.5-2-7.4-1.3-9.8,3.5c16.3,15.2,32.7,30.6,49.4,46.2c1.5-1.7,2.8-3.2,4.5-5.2c-11.7-10.9-23.4-21.8-35.1-32.7
			C753.1,503.5,753.3,503.3,753.5,503.1L753.5,503.1z"/>
		<path id="path39" inkscape:connector-curvature="0" class="st0" d="M177.4-262.5c2.3-0.5,5.1-1.1,8.5-1.8
			c5.3,4.7,11.8,10.6,19.4,17.4c-2.6,5.4-5.8,11.9-9,18.5c8.1,2.9,8.1,2.9,11.4-4.4c1-2.1,1.9-4.3,2.8-6.5c0.8-2,1.5-4,2.4-6.4
			c4.5,0.9,8.8,2,13.1,2.6c7.1,1,7.6,0.4,8.1-7.3c-5.4-0.9-10.8-1.5-16.1-2.8c-1.6-0.4-3.6-2.6-4-4.4c-2.4-10.6-4.3-21.3-6.4-31.9
			c-0.6,0-1.2,0-1.8,0.1c1.5-1.2,2.9-2.4,4.7-3.9c-0.9-1.6-1.8-3.2-3.1-5.5c-7.8,4.5-15.4,8.8-23.8,13.5c-1.1-4.7-2.1-8.9-3.3-13.7
			c-2.4,0.7-4.9,1.4-6.9,2C174.8-285.4,176-274.5,177.4-262.5z M199.2-285c4.6,8.7,7.2,17.8,6.7,29.4c-5.8-5.2-10.6-9.4-15.6-13.9
			c-1.5,0.5-3.4,1.2-5.4,2C184.5-278.8,185.4-279.8,199.2-285z"/>
		<path id="path41" inkscape:connector-curvature="0" class="st0" d="M-68,321.2c22-5.9,43.7-11.8,65.8-17.7c-0.7-2.3-1.2-4.1-2-6.6
			c-13.7,3.7-27,7.2-40.4,10.8c-0.2-0.3-0.3-0.5-0.5-0.8c5.5-3.9,10.9-7.9,16.4-11.8c5.6-4,11.1-8.2,16.8-12
			c3.3-2.2,3.9-4.6,1.1-8.6c-21.4,5.7-43.1,11.6-65.3,17.5c0.5,2.2,1,4.2,1.6,6.8c13.6-3.6,26.7-7.2,39.9-10.7
			c0.2,0.3,0.3,0.6,0.5,0.9c-5.8,4.2-11.6,8.4-17.4,12.6c-4.9,3.6-9.9,7.1-14.8,10.8C-70.2,315.2-70.2,315.2-68,321.2z"/>
		<path id="path43" inkscape:connector-curvature="0" class="st0" d="M-39.2,391.4c5.9,15.9,11.6,21.1,21.9,20.5
			c10.5-0.6,17.3-6.7,20.4-18.5c11.5,3.2,18.6,1.6,23.4-5.8c6.1-9.5,0.5-17.5-4.1-26.3C1.7,371.4-18.6,381.3-39.2,391.4z M-7,385.1
			c4.4,7.4,2.9,12.6-4.4,16.3c-8.3,4.3-13.4,2.7-17.4-5.6C-21.7,392.3-14.5,388.8-7,385.1z M0.4,381.4c6.4-3.1,12.5-6.1,18.5-9
			c3.8,6.2,2.9,9.8-2.6,13.1C9.1,389.9,4.8,389,0.4,381.4z"/>
		<path id="path45" inkscape:connector-curvature="0" class="st0" d="M418.1-294.3c-20,0.2-39.9,7.9-58.9-0.9
			c0.5-11.1,1-21.4,1.6-32.1c-3.9,0.2-6.6,0.4-10,0.6c2-6.1,3.5-11.6,5.6-17c1.9-5-1.3-7-4.8-7.1c-5.2-0.1-10.4,1.2-16,2
			c0.3,2.5,0.5,4.5,0.7,6.7c4.2-0.4,7.9-0.7,12.5-1c-3.1,9.6-6,18.6-9.1,27.9c2.4,0.8,4.1,1.3,5.3,1.7c2.5-2.5,4.5-4.6,6.6-6.6
			c0.7,0.4,1.4,0.7,2.1,1.1c-0.4,5.8-0.7,11.6-1.1,18c-4.6-1.6-6.5-8.8-12.1-2.6c2.5,3.3,5.1,6.9,8.2,11.1c-2.2,2.5-4.7,5.4-7.6,8.7
			c1.8,1.4,3.7,3,6.2,5c2.8-3.3,5.5-6.3,8.4-9.7c15.5,8.1,32,4.3,48.3,3.1c2.2-0.2,4.3-0.8,6.4-0.6
			C415.9-285.8,418-288.7,418.1-294.3z"/>
		<path id="path47" inkscape:connector-curvature="0" class="st0" d="M742.2-157.5c1.7,1.5,2.7,2.4,3.7,3.3c0.6,0.5,1.3,0.9,2.4,1.6
			c9.6-11.4,19.2-22.8,29-34.5c2.4,1.8,4.7,3.5,7.1,5.3c1.6-1.7,2.9-3.1,4.5-5c-7-5.9-13.8-11.7-21.1-17.9c3.1-3.7,6-7.1,8.9-10.6
			c7.5,4.4,14.6,8.6,22.1,13c1.7-5.8,0.2-8.9-5.4-11.4c-6.3-2.8-11.8-7.2-18.4-11.3c-14.8,14.8-25.2,36.8-49,44.8
			c0.6,2.5,1.2,4.7,1.8,7.2c14.9-4.4,25.6-13.8,35.2-25.8c2.7,2.2,5,4.1,7.9,6.5C761.5-180.7,752-169.3,742.2-157.5L742.2-157.5z"/>
		<path id="path49" inkscape:connector-curvature="0" class="st0" d="M915.6,289.4c3-0.9,8.2-1.7,12.5-4c7.2-3.9,9.4-14.3,3.9-20.3
			c-4-4.3-9.3-8-14.7-10.2c-12.2-5.1-25-8.1-38.5-5.8c-6.8,1.1-11.5,4.6-13.2,11.6c-1.6,6.8,0.9,12,6.2,15.9
			C884.2,285.7,898.7,287.9,915.6,289.4z M885.3,256.5c0.1-0.5,0.3-1,0.4-1.5c11.2,3.3,22.5,6.3,33.5,10c4.2,1.4,8.6,4.5,7.4,9.9
			c-1.2,5.3-6.5,5.5-11,6c-0.6,0.1-1.2,0.1-1.8,0c-11.1-2.8-22.4-5.2-33.4-8.6c-4.2-1.3-8.8-4.2-7.4-9.8c1.3-5.5,6.6-5.4,11-6
			C884.5,256.5,884.9,256.5,885.3,256.5z"/>
		<path id="path51" inkscape:connector-curvature="0" class="st0" d="M-41.9-56.3c-1.4,2.6-2.5,4.6-4,7.4
			c20.4,10.4,40.6,20.6,61.1,31c1.4-2.6,2.5-4.6,4-7.3C10.4-29.8,1.8-34.2-7.3-39c2-4.2,3.9-7.9,6-12.1c9.1,4.5,17.6,8.7,26.7,13.2
			c1.4-2.5,2.5-4.7,4-7.4C8.8-55.7-11.2-65.8-31.8-76.2c-1.4,2.7-2.6,4.8-3.9,7.4c9.3,4.8,18.1,9.4,27.5,14.2c-2,4-3.9,7.8-6.1,12.1
			C-23.5-47.1-32.4-51.5-41.9-56.3z"/>
		<path id="path53" inkscape:connector-curvature="0" class="st0" d="M841.4-134.7c-3.2,0.7-6.7,1-9.7,2.3
			c-12.6,5.4-23.7,13-32.4,23.7c-2.4,3-4.3,6.7-5.3,10.3c-2.3,8.7,4.3,17.3,13.4,17.4c3.7,0.1,7.6-0.3,11-1.6
			c13.1-5.3,24.4-13.3,33.3-24.3c4.4-5.4,7-11.5,4.2-18.5C853.6-131.4,848.6-134.4,841.4-134.7L841.4-134.7z M842-126.6
			c1.3,0.9,5.1,2,5.5,4c0.7,3,0.2,7.3-1.6,9.6c-8.2,10.6-18.9,18.1-31.3,23.1c-4,1.6-8.2,2.3-11.3-1.7c-3.2-4.2-0.7-8.1,2-11.2
			c8.6-10.3,19.2-17.9,31.7-22.7C838-126,839.2-126.1,842-126.6L842-126.6z"/>
		<path id="path55" inkscape:connector-curvature="0" class="st0" d="M0.9,310.9c-21.6,7.9-42.8,15.6-64,23.4
			c4.2,19.8,13.3,26.4,32.2,22.1c8.5-1.9,16.9-5.3,24.4-9.6C5.8,340,8.3,331.1,3.6,318C2.8,315.9,1.9,313.7,0.9,310.9z M-53.1,339.2
			c16.6-6.1,32.7-11.9,48.8-17.8c3.1,7.4,2.5,11.9-3,16.2c-9.9,7.6-21.1,12-33.7,12C-47.2,349.6-51.1,346-53.1,339.2z"/>
		<path id="path57" inkscape:connector-curvature="0" class="st0" d="M38,507.9c10.8,16.4,23.6,19.2,38.6,7.8
			c7.1-5.4,13.6-12,18.9-19c7.8-10.3,6.5-19.6-2.3-29.1c-1.7-1.8-3.2-3.9-4.8-5.8c-1.5,1-2.2,1.3-2.8,1.8
			C69.9,478.2,54.1,492.9,38,507.9z M49.3,508.5C62,496.6,74.5,484.9,87,473.3c5.9,6,7.1,10.1,3.3,16.7
			c-6.2,10.5-14.7,18.8-26.2,23.5C58.1,515.9,53.5,513.8,49.3,508.5z"/>
		<path id="path59" inkscape:connector-curvature="0" class="st0" d="M651.6,555.4c-3,1.5-4.9,2.5-7.6,3.8
			c4.4,8.9,8.7,17.6,13.1,26.3c3.4,6.6,7,13.2,10.1,19.9c1.9,4,3.3,8.6-1.9,11.2c-5.1,2.6-8.1-0.7-10.3-4.9
			c-7.9-15.3-15.6-30.7-23.5-46.2c-2.6,1.3-4.9,2.4-7.7,3.9c8.7,16.8,16.9,33.5,25.9,49.7c4.1,7.4,12.2,9,19.4,5.3
			c7.3-3.8,10.8-11.2,7.3-18.8C668.7,588.8,660.1,572.3,651.6,555.4L651.6,555.4z"/>
		<path id="path61" inkscape:connector-curvature="0" class="st0" d="M-22.8,155.2c0.3-3.1,0.5-5.4,0.8-8.4
			c-10-0.9-19.7-1.7-29.4-2.6c-7.8-0.7-15.6-1.3-23.5-2.1c-4.5-0.5-8.2-2.1-7.5-7.6c0.6-5.4,4.8-5.7,8.8-5.4
			c15.7,1.2,31.3,2.6,46.9,3.9c1.7,0.1,3.5,0.2,5.6,0.3c0.4-2.5,0.7-4.8,1.2-7.9c-5.9-0.6-11.5-1.2-17.1-1.7
			c-12.9-1.1-25.8-2.5-38.7-3c-9.8-0.4-16.1,6.4-15.6,15.8c0.4,7.1,4.9,12.4,13.2,13.5c12.4,1.7,25,2.5,37.5,3.6
			C-35,154.1-29.3,154.6-22.8,155.2z"/>
		<path id="path63" inkscape:connector-curvature="0" class="st0" d="M782.8-108.9c17.6-14.2,35.1-28.3,53-42.7
			c-1.8-2.3-3.3-4.3-5.2-6.8c-8.4,6.7-16.6,13.2-24.8,19.7c-0.6-0.3-1.2-0.5-1.8-0.8c0.6-2.8,0.6-5.9,2-8.2
			c3.4-5.5,7.2-10.8,11.5-15.6c4.2-4.7,4.5-8.3-1.5-12c-6.7,10.5-17.6,18.3-19.4,32c-11.8-0.3-19.1,3.4-22.4,11.8
			C770.5-121.9,776.3-115.5,782.8-108.9L782.8-108.9z M783-120.2c-2.6-6.7-1.3-9.9,5.2-14.3c3.7-2.5,7.3-3.8,11.1,1
			C793.9-129.1,788.7-124.8,783-120.2z"/>
		<path id="path65" inkscape:connector-curvature="0" class="st0" d="M7.3-137.6c-1.9,2.4-3.2,4.1-5,6.5c8.6,6.3,17,12.5,25.4,18.7
			c-0.1,0.7-0.1,1.4-0.2,2.1c-3,0.2-6.2,1.2-8.9,0.4c-6.4-1.9-12.5-4.5-18.7-6.9c-6.3-2.4-6.2-2.5-10.5,4.1
			c12,4.6,22.7,12.1,36.3,11.7c1.9,9.7,7.9,16.2,16.4,17.6c8.6,1.4,14-2.1,20.9-13.9C44.6-110.7,26.2-124,7.3-137.6z M51.4-95.5
			c-4.8,5-8.9,4.9-14.6,0.2c-4.3-3.5-4.8-6.8-1.3-11.7C40.7-103.2,45.8-99.5,51.4-95.5z"/>
		<path id="path67" inkscape:connector-curvature="0" class="st0" d="M159.3-272.9c3.7-2.3,7.2-4.5,11.1-7c-1.1-1.9-2.1-3.6-3.2-5.8
			c-10.4,6-20.4,11.7-30.9,17.7c1.2,2,2.2,3.8,3.4,5.9c4.6-2.5,8.6-4.7,13.3-7.3c6.1,10.5,12.1,20.8,18,31.1c1.1,1.9,2,3.9,3.2,5.6
			c2.2,3.1,1.2,5-2.7,6.5c-5.6-9.7-11.2-19.5-17.2-30c-1.5,0.7-3.7,1.7-6.7,3.1c5.6,9.7,11.1,19.1,16.3,28.7
			c1.1,2.1,0.9,4.9,1.4,7.4c-0.7,0.2-1.3,0.4-2,0.6c2,2.1,3.9,4.2,5.6,5.9c7.6-8.4,14.8-16.7,22.4-24.5c3.5-3.6,3-6.2-1-9.6
			c-2.7,3.1-5.4,6.2-8.6,9.8c-3.2-5.4-5.9-10.1-8.7-15.1c3-2,5.5-3.7,8.3-5.6c-1.1-1.9-2.1-3.5-3.4-5.7c-2.9,1.5-5.6,2.9-8.9,4.5
			C165.8-261.9,162.6-267.2,159.3-272.9z"/>
		<path id="path69" inkscape:connector-curvature="0" class="st0" d="M857.9-56.7c1.4-2.5,2.3-5.5,4.2-7.5c4.5-4.6,9.3-9,14.5-12.8
			c5-3.7,5.3-7,0.6-11.8c-8.9,8.8-20.8,14.6-25.6,27.2c-10.8-3-19-0.7-24.1,6.7c-4.8,7-3.9,13.9,3.6,23.7
			c19.9-10,39.9-20.2,60.6-30.6c-1.3-2.6-2.5-4.9-3.9-7.5c-9.6,4.8-18.8,9.4-28,14C859.1-55.7,858.5-56.2,857.9-56.7z M852.5-51.6
			c-6.7,3.4-12.8,6.5-19.2,9.8c-2.2-7.4,2.2-10.1,6.9-12.3C844.3-56.1,848.6-57.4,852.5-51.6L852.5-51.6z"/>
		<path id="path71" inkscape:connector-curvature="0" class="st0" d="M202.8,593c10.1-3.8,15.2-10.2,15.2-19.3
			c0-10.9-8.2-14.1-16.6-17.8c-10.3,20.3-20.5,40.3-30.9,60.9c2.6,1.3,4.8,2.4,7.5,3.8c4.9-9.5,9.6-18.7,14.6-28.3
			c3.9,2.7,4,6,3.3,9.6c-1.3,6.1-2.5,12.3-4.3,18.3c-1.8,5.7-0.5,8.9,6.5,9.9C200.2,617.8,206,606.1,202.8,593z M195.9,585.6
			c1.8-3.6,3.4-6.7,4.9-9.8c1.6-3.1,3.1-6.1,4.8-9.4c6.1,4.3,4.1,9,2,13.3C205.6,584,203,588.1,195.9,585.6z"/>
		<path id="path73" inkscape:connector-curvature="0" class="st0" d="M340,676.9c3.2,0.3,5.5,0.5,8.4,0.7
			c1.3-10.4,2.6-20.4,3.9-30.7c5.6,0.9,6.1,5.3,6.7,8.9c1.2,6.5,1.7,13.2,2.5,19.8c0.1,1.1,0.4,2.3,0.6,3.8c2.4,0.3,4.6,0.6,7.8,1
			c-1.6-12.8-0.4-25.5-7.9-36.6c8.4-6.8,11.1-15,7.8-24.1c-2.7-7.5-8.9-10.6-21.7-10.5C345.6,631.5,342.9,653.8,340,676.9z
			 M355.9,617.5c6.2,2.7,8,6.2,6.5,13.1c-0.9,4.4-2,9.1-9.2,8.2C354.1,631.8,355,624.9,355.9,617.5z"/>
		<path id="path75" inkscape:connector-curvature="0" class="st0" d="M297-266.6c6.6-0.4,8.1-3,5.5-8.1c-1.2-2.4-1.6-5.1-2.2-7
			c2.4,0.5,5,1.9,6.7,1.2c5.2-2.2,9.5-5.8,10-12c0.6-7.9-2.9-14.7-9.4-18.4c-7.1-4-7.9-9.3-7.1-16.1c0.4-2.9,0.5-5.9,0.7-8.8
			c0.3-5.5-3.4-7.9-8.4-5.9c-6,2.4-12.1,4.4-19,6.9C281.5-311.9,289.2-289.2,297-266.6z M292.6-334.4c0,5.9-0.3,11.1,0.1,16.3
			c0.2,2.3,1.5,4.9,3.1,6.6c3.1,3.5,7.4,6,10.1,9.7c5.8,8,3.1,13.8-7.2,16c-5.1-14.9-10.2-29.8-15.5-45.2
			C286.6-332.2,289.4-333.2,292.6-334.4z"/>
		<path id="path77" inkscape:connector-curvature="0" class="st0" d="M837.8,353.4c20.7,8,41.5,16,62.7,24.1c1-2.5,1.8-4.7,2.9-7.4
			c-9.7-3.8-19.2-7.6-28.8-11.4c-0.1-0.6-0.2-1.2-0.3-1.8c2.4-1,4.9-2.8,7.2-2.7c6.8,0.2,13.7,0.9,20.4,2.1c5.3,0.9,8.3-0.4,8.9-6.8
			c-12.3-1.7-24.5-5.5-37.2-1.7c-4.6-9.6-13.3-14.5-22.6-12.6C843.7,336.7,838.5,343.7,837.8,353.4z M847.3,348.2
			c4.1-5.6,9.5-6.4,15.4-3.1c4.5,2.6,5.2,5,3,10.2C859.8,353.1,853.8,350.8,847.3,348.2z"/>
		<path id="path79" inkscape:connector-curvature="0" class="st0" d="M36.8,390.1c-16.1,10.6-31.7,20.7-47.1,31.2
			c-6.5,4.5-7.6,11.6-4.2,18.2c4,7.5,10.3,10.3,18.2,7.8c1.8-0.6,3.7-1.4,5.3-2.5c14.7-9.5,29.3-19,44.4-28.8
			c-1.4-2.2-2.6-4.3-4.2-6.9c-13.5,8.8-26.8,17.4-40.1,26.1c-2,1.3-4,2.5-6,3.7c-3.8,2.2-7.3,1.6-9.8-2.1c-2.5-3.8-1.5-7.4,2-9.8
			c7.6-5.3,15.3-10.2,23.1-15.3c7.4-4.8,14.8-9.7,22.6-14.8C39.7,394.9,38.5,393,36.8,390.1z"/>
		<path id="path81" inkscape:connector-curvature="0" class="st0" d="M165.1,570.1c-4.1-3-7.7-5.6-11.8-8.7c-1.6,2.1-3,4.1-5.2,7
			c1.9,1,3.7,1.9,5.7,3c-4.6,6.4-8.5,11.7-12.3,17c-7.4-3-9.7-7.6-7.3-15c3.7-11.1,10.3-20.4,19.2-27.8c10.1-8.4,17.3-5.8,22.9,7.7
			c6.2-5.3,6.4-9,1.1-14.9c-6-6.6-15.1-8.3-23.6-2.8c-14.6,9.3-24.8,22.4-27.9,39.8c-2,11.1,5.6,21.3,15.5,21.7
			c2,0.1,4.4-1.2,5.9-2.6c2-1.8,3.3-4.4,4.9-6.6C156.4,582.2,160.5,576.5,165.1,570.1z"/>
		<path id="path83" inkscape:connector-curvature="0" class="st0" d="M746.8-248.4c-14.8,15.5-26.8,36.3-48.4,48.1
			c0.6,1.9,1.2,3.8,1.9,5.7c7.2-1.5,12.1-4.9,25.3-17.4c3.9,3.3,8.6,6.1,11.5,10.2c1.7,2.4-0.2,7.3,5.6,7.9
			c5.7-6.8,11.8-14.1,18.4-21.9c-6.2-5.3-12.3-10.5-18.6-15.9c1.9-2.5,3.7-4.7,5.7-7.2c7.3,4.2,14.4,8.3,21.7,12.4
			c1.9-4.8,2-7.9-3.9-10.5C759.4-239.8,753.5-244.3,746.8-248.4L746.8-248.4z M751-215.9c-2.2,2.7-3.9,5.1-6,7
			c-0.9,0.8-3.4,1.2-4.3,0.6c-3.7-2.7-7.1-5.9-10.9-9.1c2.9-3.3,5.4-6.2,8.1-9.4C742.4-223.1,746.4-219.8,751-215.9L751-215.9z"/>
		<path id="path85" inkscape:connector-curvature="0" class="st0" d="M-84.7,250.4c0.6,2.7,1,5,1.5,7.1c5.1,0.5,10.6-0.3,14.5,1.8
			c2.3,1.2,2.1,7.1,3.1,11.1c-5.1,1.9-9.6,3.6-14.4,5.5c0.5,2.6,1,4.8,1.7,8.1c22-8.3,43.7-16.4,65.5-24.6c-0.5-3.2-0.8-5.7-1.3-8.9
			C-37.4,250.4-60.7,250.4-84.7,250.4z M-29.9,258.1c-10.1,3.5-19.1,6.5-28.5,9.7c-0.6-3.4-1-6.2-1.6-9.7
			C-49.9,258.1-40.5,258.1-29.9,258.1z"/>
		<path id="path87" inkscape:connector-curvature="0" class="st0" d="M78.9-118.3c-15.1-17.7-29.9-35.1-45.2-53.1
			c-1.8,2.2-3.4,4-5.4,6.4c3.3,3.9,6.6,7.7,10.2,11.9c-2.5,3.3-5,6.5-7.8,10.1c-2.6-1.4-5.4-2.5-7.6-4.3c-5-4-8.3-2.8-11.1,3.5
			c20.2,10.8,40.5,21.6,61.1,32.7C75-113.4,76.8-115.7,78.9-118.3z M63-125.7c-0.2,0.2-0.4,0.5-0.6,0.7c-8.2-4.7-16.4-9.3-25-14.2
			c2.3-2.9,4.1-5.1,6.3-7.9C50.4-139.7,56.7-132.7,63-125.7z"/>
		<path id="path89" inkscape:connector-curvature="0" class="st0" d="M298.5,667c3.1,0.7,5.4,1.2,8,1.7c1.4-2.9,2.8-5.6,4-8.5
			c1.3-3.2,2.1-6.1,6.9-4.4c4.3,1.5,9,1.7,7.4,8.4c-0.7,2.8-0.5,5.8-0.7,8.9c2.6,0.7,4.8,1.2,7.9,2c0.5-7.7,1-14.9,1.4-22.3
			c0.8-14.3,1.5-28.6,2.5-42.8c0.3-3.7-1.5-4.7-4.4-5.5c-3.1-0.9-4.7,0.1-5.9,2.9C316.7,627,307.8,646.6,298.5,667z M316,647.6
			c3.9-9.2,7.4-17.6,11-25.9c0.3,0.1,0.7,0.2,1,0.3c-0.8,9.1-1.5,18.2-2.3,27.8C322.1,648.9,319.5,648.4,316,647.6z"/>
		<path id="path91" inkscape:connector-curvature="0" class="st0" d="M691.3-220.3c-1.5-1.8-2.9-3.5-5.4-6.4
			c-1.2,1.9-2.1,3.7-3.4,5.2c-3.4,4-7.1,2-9.6-0.6c-1.2-1.2-0.8-5,0.2-6.9c2.9-6,6.5-11.6,10-17.8c-5.3-3.2-10.3-6.2-16.5-9.9
			c2.6-1.9,4.6-3.4,7.1-5.3c-2.4-2-4.4-3.7-6.5-5.4c-2.3,2.6-4.4,4.8-6.6,7.4c-7.2-4.1-14.1-8-21.5-12.1c-1.1,1.8-2.1,3.4-3.3,5.5
			c6.6,3.9,12.8,7.5,19.5,11.5c-10.2,8.7-21.4,8.4-33.3,5.3c-0.3,5.4,0.9,8.3,6.6,9c9.5,1.1,18.9,0.4,26.5-5.4
			c6.8-5.2,11.8-4.2,17.7,1.7c-2.8,4.9-5.8,10.1-8.7,15.3c-3.2,5.7-2.5,8.7,2.7,12.5C678-208.8,683.5-209.4,691.3-220.3L691.3-220.3
			z"/>
		<path id="path93" inkscape:connector-curvature="0" class="st0" d="M681.4-278c0.9,6.8-10.9,11.3-2.5,17.5
			c5.5,4.1,11.7,11.5,21.4,3.5c-1.2,3-2,4.7-2.9,7c2,1.2,4,2.3,6.4,3.7c3.9-6.8,7.6-13.2,11.6-20.2c-9.6-5.6-18.8-11-28.6-16.7
			c1.6-2.1,2.8-3.7,4.5-5.9c-2.1-1.5-4.2-3-6.5-4.7c-1.6,2.3-2.9,4.2-4.7,6.8c-9.2-5.2-18.3-10.4-28-15.9c-3.8,6.6-7.5,13-11.6,20.1
			c2,1.4,3.9,2.6,6.4,4.3c2.9-4.8,5.5-9.2,8.5-14.2C664.5-287.7,673.3-282.6,681.4-278L681.4-278z M695.6-264
			c-2.9,5.2-7.4,4.1-9.2,0.9c-1.3-2.4,0.8-6.7,1.5-11.1c6.7,3.8,11.7,6.7,17.3,9.9c-1.2,2.1-2.3,3.8-3.5,5.8
			C699.5-260.5,697.9-261.9,695.6-264z"/>
		<path id="path95" inkscape:connector-curvature="0" class="st0" d="M569.2-315.7c-4.3-1.5-7.9-2.8-12.2-4.3
			c1.9-3.8,3.7-7.4,5.9-11.8c3.4,0.9,6.9,1.8,11.1,2.9c0.8-1.9,1.6-4,2.7-6.5c-8.4-2.7-16.4-5.3-24.8-8c-0.9,2.1-1.7,4-2.7,6.3
			c2.4,1.1,4.4,2,8.1,3.6c-6.5,8.6-12.7,16.8-19.6,26c1.5,1.1,3.8,2.6,6.8,4.8c-2.1,6.6-4.7,14.8-7.3,23.3c2,0.9,3.7,1.7,6,2.8
			c1.2-3.2,2.2-6.1,3.7-10.3c3.4,3.1,6.4,5.7,10.2,9.1C561.3-291.3,565.2-303.2,569.2-315.7L569.2-315.7z M554.1-291.8
			c-4.4-0.1-5.9-1.3-4.2-5.4c1.9-4.5,3.1-9.2,4.6-13.8c0.2-0.5,0.7-0.8,1.4-1.5c1.3,0.5,2.7,1.1,4.3,1.8
			C558.2-304.3,556.2-298.2,554.1-291.8L554.1-291.8z"/>
		<path id="path97" inkscape:connector-curvature="0" class="st0" d="M725.1,549.4c-1.6-2.2-3-4-4.7-6.4c-4,2.8-7.8,5.3-12.2,8.3
			c-3.9-5.4-7.7-10.7-11.8-16.3c4.3-3.2,8.1-6.1,12.6-9.5c-1.5-2.1-2.8-4.2-4.6-6.7c-6.7,4.8-13.1,9.4-19.8,14.2
			c13.6,18.8,26.9,37.2,40.5,56c6.9-4.9,13.5-9.7,20.6-14.8c-1.6-2.3-3.1-4.3-4.8-6.7c-4.6,3.2-9,6.4-13.9,9.8
			c-4.5-6.2-8.9-12.2-13.7-18.8C717.2,555.6,721,552.7,725.1,549.4L725.1,549.4z"/>
		<path id="path99" inkscape:connector-curvature="0" class="st0" d="M896.5-53c-2.9,1.4-5,2.3-7.5,3.4c2.2,5.2,4.3,10,6.6,15.4
			c-7.1,3.2-14,6.3-21.5,9.7c-2.1-4.4-4.2-8.8-6.5-13.6c-2.5,1.1-4.7,2.1-7.3,3.2c2,4.6,3.8,8.9,5.8,13.8c-6,2.7-11.8,5.3-18.1,8.1
			c-2.3-4.8-4.4-9.4-6.7-14.4c-2.6,1.1-4.8,2-7.5,3.1c3.3,7.5,6.5,14.6,9.9,22.2c20.9-9.3,41.5-18.3,62.8-27.8
			C903.2-37.5,900-44.9,896.5-53L896.5-53z"/>
		<path id="path101" inkscape:connector-curvature="0" class="st0" d="M-27.2,220.2c5.7,1.5,7.9-0.1,7.2-5.7c-0.8-6-1-12-1.5-18.9
			c-23.1,1.6-45.7,3.2-69.1,4.9c0.7,8.6,1.3,16.7,1.9,25.1c2.5,0,4.5,0,6.9,0c0-5.8,0-11.3,0-17.4c7.8-0.5,15.6-1,23.6-1.5
			c0.5,5.3,0.9,10,1.3,14.9c2.4,0,4.5,0,7.5,0c-0.3-5-0.5-9.8-0.9-15.4c7.1-0.6,14-1.2,21.5-1.8C-28.2,210-27.7,215.2-27.2,220.2z"
			/>
		<path id="path103" inkscape:connector-curvature="0" class="st0" d="M228.2,644.6c1-2.2,1.9-4.1,3-6.6c-5-2.4-9.7-4.7-15.2-7.3
			c3.3-7.2,6.6-14.3,9.9-21.7c4.9,2.2,9.1,4.1,13.7,6.1c1.1-2.1,2-4,3.3-6.3c-4.6-2.3-8.9-4.5-13.7-6.9c3.1-6.6,6-12.9,9.1-19.7
			c5,2.2,9.6,4.2,14.7,6.4c1.1-2,2-3.9,3.3-6.4c-7.4-3.5-14.4-6.8-22.3-10.5c-9.6,20.7-19.2,41.1-28.9,62.1
			C212.9,637.5,220.3,641,228.2,644.6L228.2,644.6z"/>
		<path id="path105" inkscape:connector-curvature="0" class="st0" d="M943.2,119.8c-1-8.7-2-16.5-2.9-24.6
			c-2.5,0.3-4.6,0.5-7.3,0.8c0.5,5.3,1,10.4,1.5,16.4c-8,0.9-15.7,1.8-24,2.8c-0.8-4.9-1.5-9.4-2.3-14.5c-2.4,0.3-4.4,0.6-6.9,0.9
			c0.4,4.9,0.8,9.5,1.2,14.6c-7,0.8-13.5,1.6-20.5,2.4c-0.8-5.1-1.5-9.7-2.4-15c-2.1,0.1-4.2,0.3-7.2,0.5c0.9,8,1.7,15.6,2.7,24
			C898,125.3,920.3,122.6,943.2,119.8z"/>
		<path id="path107" inkscape:connector-curvature="0" class="st0" d="M277.2,653.2c2.3-8.1,4.4-15.6,6.6-23.3
			c5.1,1.3,9.6,2.5,14.6,3.7c0.7-2.4,1.4-4.5,2.2-7.1c-5-1.6-9.6-3.1-14.5-4.7c1.9-6.5,3.6-12.6,5.6-19.5c5.1,1.3,10,2.5,15.4,3.8
			c0.6-2.3,1.3-4.4,2.1-7.3c-7.6-2.2-14.9-4.3-22.9-6.6c-6.3,22-12.5,43.8-19,66.4c8,2.3,15.6,4.5,23.9,6.8c0.8-2.6,1.4-4.7,2.2-7.4
			C287.9,656.5,283,655,277.2,653.2z"/>
		<path id="path109" inkscape:connector-curvature="0" class="st0" d="M-17,56.3c2.7,0.7,4.6,1.2,7.3,1.9c2.2-7.6,4.3-14.9,6.7-22.9
			c-10.7-3.1-20.8-6.1-30.9-9c-10.4-3-20.8-5.8-31.1-8.8c-2.6-0.8-4.5-1.4-5.4,2c-1.8,6.8-3.7,13.5-5.7,20.8
			c2.6,0.6,4.8,1.2,7.4,1.8c1.7-5.5,3.2-10.5,4.9-16c7.7,2.2,15.1,4.3,23.2,6.6c-1.2,5-2.4,9.6-3.7,14.7c2.4,0.6,4.6,1.2,7.2,1.9
			c1.2-3.9,2-7.5,3.5-10.8c0.6-1.3,2.9-2.8,4-2.5c5.5,1.2,10.9,3,16.7,4.7C-14.4,46-15.6,50.8-17,56.3z"/>
		<path id="path111" inkscape:connector-curvature="0" class="st0" d="M856.9,295.1c-1.2,3.1-2,5.4-3,8.1
			c6.7,4.4,13.2,8.7,20.8,13.7c-7,0-12.7,0.2-18.4-0.1c-7.4-0.4-7.6-0.4-8.4,8.2c23.2-1.5,46-0.4,67.8,10.6c1.1-3.1,1.9-5.2,2.8-7.6
			c-11.1-4.2-22.4-7.1-32.4-12.5C875.8,310.2,867,302.4,856.9,295.1L856.9,295.1z"/>
		<path id="path113" inkscape:connector-curvature="0" class="st0" d="M408.1,624c-0.7-2.7-0.5-6.5-2.3-7.9
			c-4.3-3.5-10-4.6-14.8-1.4c-3.3,2.1-6.5,5.4-7.9,9c-5.7,14.3-7.7,29.1-4.7,44.4c1.4,6.8,4.4,12.6,11.9,14.7
			c8,2.3,12.6-1.3,12.3-10.2c-1.3,0.6-2.4,1.3-3.5,1.8c-6.4,2.8-11.6,0.3-12.6-6.7c-2-13.4-0.9-26.6,3-39.6c2.2-7.3,7.6-9,14.3-5.2
			c1,0.5,1.9,1.2,2.8,1.8C407.1,624.4,407.6,624.2,408.1,624L408.1,624z"/>
		<path id="path115" inkscape:connector-curvature="0" class="st0" d="M880.8,232.4c-3.8-4.7,4.4-13.9-7.6-13.9
			c-0.9,7-1.7,13.7-2.6,21.1c22.6,2.4,45,4.9,67.8,7.3c0.5-2.8,0.9-5.2,1.5-8.3c-10.3-1.1-20.4-2.3-30.7-3.4c0-4,0-7.6,0-11.7
			c-1.9-0.3-3.9-0.6-6.5-1c-0.6,3.9-1.1,7.5-1.8,11.7C893.8,233.5,887.1,232.9,880.8,232.4L880.8,232.4z"/>
		<path id="path117" inkscape:connector-curvature="0" class="st0" d="M238.2,640c-0.1,1.6-1.7,6.1-0.4,7.1c3.3,2.6,7.7,4.8,11.8,5
			c6.3,0.3,11.9-4.9,12.9-11.6c0.9-6.5,0.6-13.3,0.6-19.9c0-4.9-1.1-9.9-0.5-14.7c0.4-3.5,2-8,4.6-9.7c2-1.3,6.4,1,10.4,1.8
			c3.6-5.4,1.9-9.5-6-11.1c-6.9-1.3-14.2,2.6-15.7,10.1c-1.5,8-1.1,16.3-1.3,24.5c-0.1,3.5,0.6,7,0.8,10.5
			c0.2,4.6,0.3,10.1-5.1,11.2C247.1,643.9,243.2,641.4,238.2,640z"/>
		<path id="path119" inkscape:connector-curvature="0" class="st0" d="M536.7,664c0.5,3.2,0.9,7.5,7.3,6.9c6.9-0.6,13-5.3,13.3-11.9
			c0.1-4.1-0.9-8.7-2.8-12.2c-2.9-5.2-7.2-9.7-10.8-14.6c-2.8-3.8-6.1-7.3-8.1-11.5c-1.3-2.8-1.9-7.2-0.6-9.7c1.1-2,5.5-2.3,8.8-3.4
			c-0.1-7-2.5-8.7-9.9-6c-8.5,3.1-11.7,11.9-7.1,20.9c2.4,4.7,5.9,8.7,9.1,13c3.4,4.6,7.5,8.7,10.1,13.7c1.7,3.2,2.8,8.2,1.4,11.2
			C546.3,662.5,540.9,662.7,536.7,664L536.7,664z"/>
		<path id="path121" inkscape:connector-curvature="0" class="st0" d="M862.1,431.9c5.1,4.3,7.9,3.9,11.7-2.8
			c4.6-8,1.1-18.2-8.5-20.7c-9.4-2.5-19.3-3.1-29-4.5c-1.2-0.2-2.5,0.2-3.5-0.3c-3.6-1.9-8.3-3.4-10.2-6.4c-1.1-1.8,2.4-6.4,3.9-10
			c-5.4-4.2-9.2-3.2-11.9,4.3c-2.4,6.8,0.2,14,7.7,16.9c6.4,2.6,13.6,3.6,20.5,4.8c4.6,0.8,9.4,0.8,14.1,1.1
			c4.8,0.3,9.9,1.4,10.3,6.7C867.5,424.3,864.2,427.7,862.1,431.9L862.1,431.9z"/>
		<path id="path123" inkscape:connector-curvature="0" class="st0" d="M591.7,584.1c1.3,2.8,2.1,4.7,3.3,7.2
			c3.5-1.3,6.8-2.6,10.5-3.9c8.2,18.3,16.2,36.3,24.5,55c2.6-1.2,4.7-2.2,7.4-3.5c-8.1-18.4-16-36.3-24.3-54.9c3.2-1.6,6.4-3.2,10-5
			c-1-2.3-1.9-4.4-3.2-7.3C610.5,575.9,601.3,579.9,591.7,584.1z"/>
		<path id="path125" inkscape:connector-curvature="0" class="st0" d="M-17.7-79.1c0.1-12.3,5.2-16,15.9-10.7
			c9.3,4.6,18.3,10,26.6,16.2c10,7.5,9.2,13.6-1.5,20.2c7,5.6,14.8,2.6,15.9-6.7c0.4-3.8-0.5-8.7-2.7-11.5
			C25.1-86,10.3-95.4-7.6-99.3c-5.3-1.2-10.6,0-13.9,4.4C-28-86.2-26.6-81.5-17.7-79.1z"/>
		<path id="path127" inkscape:connector-curvature="0" class="st0" d="M876.2,200.9c1.7,0,3.6,0,6,0c0.4-3.4,0.9-6.6,1.4-10.6
			c20.1,0.7,40,1.3,60.8,2c0.1-2.5,0.3-4.9,0.5-8.1c-20.5-0.9-40.6-1.8-61.1-2.7c-0.2-3.8-0.3-7.2-0.5-10.9c-2.3-0.1-4.2-0.2-7-0.4
			C876.2,180.4,876.2,190.3,876.2,200.9z"/>
		<path id="path129" inkscape:connector-curvature="0" class="st0" d="M888.1,401.7c1.3-2.5,2.4-4.6,3.9-7.4
			c-18.3-9-36.5-18-55.1-27.1c1.4-3.3,2.7-6.1,4.1-9.5c-2.1-1.1-4.1-2-6.5-3.2c-4.4,8.8-8.5,17.3-13,26.3c2.2,1.1,4.1,2.1,6.4,3.3
			c1.7-3.1,3.2-5.8,5.1-9.2C851.3,383.7,869.3,392.5,888.1,401.7L888.1,401.7z"/>
		<path id="path131" inkscape:connector-curvature="0" class="st0" d="M654.9,553.6c1.9,2.7,3.2,4.6,4.6,6.5c3.1-2,5.9-3.8,9.4-6.1
			c11.1,16.5,22.1,32.8,33.6,49.8c2.2-1.4,4.2-2.7,6.8-4.3c-11.3-16.9-22.3-33.3-33.5-50c3-2.2,5.8-4.2,9.1-6.5
			c-1.4-2.1-2.8-4.2-4.4-6.6C671.9,542.2,663.7,547.7,654.9,553.6L654.9,553.6z"/>
		<path id="path133" inkscape:connector-curvature="0" class="st0" d="M565.1,602.5c3.6-1.5,6.6-2.8,10-4.2
			c-0.8-2.4-1.5-4.5-2.5-7.3c-9.4,3.4-18.5,6.6-28.3,10.1c0.8,2.5,1.6,4.8,2.5,7.4c3.4-1.1,6.5-2.1,10.4-3.3
			c6.9,18.8,13.7,37.4,20.7,56.7c2.6-0.9,4.9-1.7,7.5-2.6C578.8,640.3,572.1,621.8,565.1,602.5L565.1,602.5z"/>
		<path id="path135" inkscape:connector-curvature="0" class="st0" d="M856.8,9.9c-1.6-3.6-2.9-6.5-4.4-10c-2.3,0.8-4.5,1.6-7.2,2.6
			c3.5,9.6,6.7,18.7,10.2,28.2c2.4-0.9,4.5-1.6,7.2-2.6c-1-3.4-1.9-6.7-3-10.5C878.3,10.8,896.8,4,916-2.9c-0.8-2.6-1.6-4.9-2.4-7.6
			C894.6-3.7,876,3,856.8,9.9L856.8,9.9z"/>
		<path id="path137" inkscape:connector-curvature="0" class="st0" d="M-6.4,17.7c-1.1,3.8-2,6.9-3,10.4c2.5,0.8,4.6,1.5,7.3,2.3
			c3.2-9.4,6.3-18.4,9.6-28C5.1,1.5,3,0.8,0.4-0.2C-1,3.2-2.3,6.2-3.8,10C-23,3.5-42-3-61.5-9.6C-62.4-7-63.1-4.9-64-2.1
			C-44.7,4.5-25.9,11-6.4,17.7z"/>
		<path id="path139" inkscape:connector-curvature="0" class="st0" d="M16.9,482.3c5.2,6.7,10.2,13,15.3,19.5c2.1-1.5,3.8-2.7,6-4.2
			c-3.3-4.3-6.4-8.5-10-13.2c16-12.6,32-25.1,48.3-37.9c-1.9-2.3-3.4-4.3-5.3-6.7C53.1,454.1,35.2,468.1,16.9,482.3z"/>
		<path id="path141" inkscape:connector-curvature="0" class="st0" d="M279.4-292.2c-11.1,3.8-21.6,7.4-32.7,11.2
			c3.2,9.5,6.4,18.7,9.7,28.3c3.1-1.3,8.1,0.5,6.5-5.8c-0.1-0.4,1.6-1.5,2.6-1.9c4.6-1.7,9.2-3.3,13.7-3.5c2.9,0.4,5.8,0.8,10.3,1.5
			C285.8-273.4,282.7-282.5,279.4-292.2z M260.3-265.4c-1.5-4.5-2.7-8.1-4.1-12.1c6.3-2.1,11.9-3.9,18.1-5.9
			c1.4,4.3,2.6,7.9,3.9,11.9C272.1-269.4,266.5-267.5,260.3-265.4z"/>
		<path id="path143" inkscape:connector-curvature="0" class="st0" d="M816.8,505.5c1.9-2.3,3.6-4.3,5.7-6.8
			c-17.6-14.8-34.8-29.3-52.4-44c-2,2.2-3.6,4-5.9,6.5C781.7,476,799.1,490.6,816.8,505.5z"/>
		<path id="path145" inkscape:connector-curvature="0" class="st0" d="M934.8,66.2c-0.5-3.1-0.8-5.2-1.3-8.3
			c-6.9,1.3-13.5,2.4-20.1,3.7c-13.7,2.6-27.3,5.2-41,8c-7,1.4-7,1.8-4.1,9.4C890.2,74.8,912.3,70.6,934.8,66.2L934.8,66.2z"/>
		<path id="path147" inkscape:connector-curvature="0" class="st0" d="M476.2,612.3c-2.9,0.2-5.2,0.3-8.5,0.6
			c2.8,22.8,5.5,45.2,8.2,68c3.1-0.3,5.5-0.6,8.4-0.9C481.6,657.4,478.9,635.2,476.2,612.3z"/>
		<path id="path149" inkscape:connector-curvature="0" class="st0" d="M64.9,432.5c-1.6-2.4-3.1-4.4-4.7-6.8
			C41.4,438.9,23,451.8,4.3,465c1.5,2.2,2.7,4.1,4.5,6.9C27.6,458.7,46.1,445.7,64.9,432.5z"/>
		<path id="path151" inkscape:connector-curvature="0" class="st0" d="M586.9,584.1c-2.7,1.1-4.7,2-7.5,3.1
			c8.2,21.5,16.4,42.8,24.7,64.5c2.6-1.1,4.7-2,7.4-3.2C603.3,627.1,595.2,605.9,586.9,584.1z"/>
		<path id="path153" inkscape:connector-curvature="0" class="st0" d="M-51.3-35.5c-1.1,2.6-2,4.7-3.3,7.5
			c21.3,8.5,42.3,17,63.6,25.5c1.2-2.7,2.2-4.7,3.4-7.4C-9-18.5-30-27-51.3-35.5z"/>
		<path id="path155" inkscape:connector-curvature="0" class="st0" d="M120.6,496.6c-2.1-2-3.8-3.5-6-5.6
			c-15.8,16.4-31.4,32.6-47.3,49.1c2,1.9,3.6,3.5,5.8,5.7C89,529.4,104.7,513.2,120.6,496.6z"/>
		<path id="path157" inkscape:connector-curvature="0" class="st0" d="M856.9,452.7c1.5-2.3,2.7-4.2,4.4-6.6
			c-19.6-12.3-38.8-24.3-58.5-36.7c-1.5,2.3-2.8,4.3-4.4,6.6C818,428.3,837.3,440.4,856.9,452.7z"/>
		<path id="path159" inkscape:connector-curvature="0" class="st0" d="M813.4-60.8c20-11.9,39.5-23.6,59.5-35.6
			c-1.5-2.4-2.7-4.3-4.2-6.6c-19.8,11.9-39.3,23.5-59.2,35.3C810.9-65.3,812-63.3,813.4-60.8z"/>
		<path id="path161" inkscape:connector-curvature="0" class="st0" d="M244.3-309.9c-2.1,2.4-3.5,3.9-5.2,5.8
			c2.4,2.7,4.5,5.2,6.9,7.9c-2.8,1.2-5.3,2.2-8.1,3.4c0.8,2.1,1.5,4.1,2.4,6.6c13.5-4.6,26.7-9.1,40.4-13.8
			c-0.8-2.4-1.5-4.3-2.2-6.4c-2.4,0.5-4.5,0.9-7,1.3c0-3.6,0-6.8,0-10.6c-2.1-0.2-4.7-0.3-7.5-0.5c0,3.1,0,5.6,0,8.2
			c-0.1,3,0.6,6-3.6,7.5c-4,1.4-7,1.9-9.7-1.9C248.9-304.8,246.8-306.9,244.3-309.9z"/>
		<path id="path163" inkscape:connector-curvature="0" class="st0" d="M461.2-330.6c4,0.2,6.7,0.3,9.4,0.4c1.2-3.7,1.6-6.5-3.2-6.9
			c-7.2-0.5-14.4-1.2-22.2-1.8c-0.3,2-0.6,3.8-0.9,5.8c3.2,0.7,6.1,1.3,10.6,2.2c-1.7,2.9-2.5,6.3-4.5,7.2c-2.6,1.1-6.1,0.3-9.7,0.3
			c0.2,2.8,0.3,4.8,0.4,7c9.4-0.7,18.3-1.2,27.1-2.2c1.5-0.2,2.7-2.4,4-3.7c-0.3-0.5-0.6-1-1-1.4c-3.2,0-6.4,0-10.5,0
			C461-326.1,461.1-328.2,461.2-330.6z"/>
		<path id="path165" inkscape:connector-curvature="0" class="st0" d="M495.7-351.1c-1-2.3-1.4-4.7-2.2-4.8
			c-2.1-0.4-5.4-0.7-6.5,0.6c-3.6,4-6.5,8.7-9.9,13.4c1.5,1.1,3,2.2,5,3.7c1.5-1.6,2.9-3.1,4.3-4.7c3.6-4,8.7-3.2,10,2
			c1.3,5.1,3.9,5.6,8.2,3.3c-0.4-1.9-0.8-3.7-1.3-6.2c4.1,0.2,7.7,0.5,11.8,0.7c0.3-1.8,0.6-3.4,1-5.8
			C508.7-349.6,501.8-350.4,495.7-351.1L495.7-351.1z"/>
		<path id="path167" inkscape:connector-curvature="0" class="st0" d="M271-321.3c-4.6-10.6-10.3-0.1-15.7-3
			c-0.4-1.2-1.1-3.5-2.1-6.6c-2.3,0.3-4.9,0.6-8.1,1c0.8,3.3,1.5,6.2,2.4,9.7c-4.8,1.7-9.5,3.4-14.5,5.2c0.6,2.1,1.1,3.7,1.8,6
			C246.9-313,258.6-317.1,271-321.3z"/>
		<path id="path169" inkscape:connector-curvature="0" class="st0" d="M674.5-276.3c-2-6-5.2-6.9-10.2-5.3c-4.2,1.3-8.8,1.4-13.3,2
			c0.2,7.2,0.4,7.5,7.2,6.5C663.5-273.8,668.8-275.1,674.5-276.3z"/>
		<path id="path171" inkscape:connector-curvature="0" class="st0" d="M762.6,576.7c3.4-8.3,0.7-17.2-6.3-19.7
			c-1.9-0.7-4.7,1.1-7,1.7c0.9,2.5,1,6.3,2.7,7.4C759.2,570.3,759.4,570,762.6,576.7L762.6,576.7z"/>
		<path id="path173" inkscape:connector-curvature="0" class="st0" d="M496-318.2c-3.6-6.8-4.4-7.3-8.8-4.8
			C489.4-316,492-314.5,496-318.2z"/>
		<path id="path175" inkscape:connector-curvature="0" class="st0" d="M-52.7,170.1c0.8,6.4,4.6,7.6,8.9,7.9
			c7.1,0.5,10.7-1.7,13-7.9C-37.9,170.1-45,170.1-52.7,170.1z"/>
		<path id="path179" inkscape:connector-curvature="0" class="st0" d="M89.9-208.6c-5.7,4.7-11,9.2-16.8,14
			c6.2,7.4,12,14.4,17.9,21.5C98.8-183.3,98.4-198,89.9-208.6z"/>
		<path id="path181" inkscape:connector-curvature="0" class="st0" d="M97.2-214.6c10.4,8.4,21.4,10,34.6,7.1
			c-6-7.3-11.6-14-17.6-21.3C108.6-224.1,103.1-219.6,97.2-214.6z"/>
		<path id="path183" inkscape:connector-curvature="0" class="st0" d="M397.6-338c-3.2,0.3-6.1,0.6-9.1,1c0.1,1.7,0.2,3.1,0.3,4.3
			C397.4-331.4,398.7-332.1,397.6-338z"/>
		<path id="path185" inkscape:connector-curvature="0" class="st0" d="M392.5-342.9c1.9-1.6,3.3-2.7,4.7-3.9
			c-1.5-0.7-3.1-2.1-4.5-1.9c-1.9,0.3-3.7,1.7-5.6,2.6C388.7-345.2,390.3-344.2,392.5-342.9z"/>
		<path id="path187" inkscape:connector-curvature="0" class="st0" d="M593.6-324.3c-2.4,7.2-4.5,13.6-6.8,20.8
			c3.8,1.2,7.2,2.2,11.3,3.5c2.3-6.9,4.4-13.3,6.7-20.3C601.1-321.6,597.7-322.8,593.6-324.3z"/>
		<path id="path189" inkscape:connector-curvature="0" class="st0" d="M199.2-285c-13.8,5.3-14.6,6.3-14.3,17.5c2-0.7,4-1.4,5.4-2
			c5,4.4,9.7,8.7,15.6,13.9C206.4-267.3,203.7-276.4,199.2-285z"/>
		<path id="path191" inkscape:connector-curvature="0" class="st0" d="M-7,385.1c-7.5,3.7-14.6,7.2-21.8,10.7
			c4,8.4,9.1,9.9,17.4,5.6C-4.2,397.7-2.6,392.5-7,385.1z"/>
		<path id="path193" inkscape:connector-curvature="0" class="st0" d="M0.4,381.4c4.4,7.5,8.7,8.5,15.9,4.1
			c5.5-3.3,6.3-6.9,2.6-13.1C12.9,375.4,6.9,378.3,0.4,381.4z"/>
		<path id="path195" inkscape:connector-curvature="0" class="st0" d="M885.3,256.5c-0.4,0-0.8,0-1.2,0c-4.4,0.6-9.7,0.5-11,6
			c-1.3,5.6,3.3,8.5,7.4,9.8c11,3.3,22.2,5.8,33.4,8.6c0.6,0.1,1.2,0.1,1.8,0c4.5-0.5,9.8-0.7,11-6c1.2-5.3-3.2-8.4-7.4-9.9
			c-11.1-3.7-22.3-6.7-33.5-10C885.6,255.5,885.4,256,885.3,256.5L885.3,256.5z"/>
		<path id="path197" inkscape:connector-curvature="0" class="st0" d="M842-126.6c-2.8,0.5-4,0.6-5.1,1
			c-12.5,4.9-23.1,12.5-31.7,22.7c-2.6,3.1-5.2,6.9-2,11.2c3.1,4.1,7.3,3.3,11.3,1.7c12.4-5,23.2-12.5,31.3-23.1
			c1.8-2.3,2.3-6.6,1.6-9.6C847.1-124.6,843.3-125.7,842-126.6z"/>
		<path id="path199" inkscape:connector-curvature="0" class="st0" d="M-53.1,339.2c2,6.8,5.9,10.3,12.1,10.4
			c12.6,0,23.9-4.3,33.7-12c5.5-4.3,6.1-8.8,3-16.2C-20.4,327.3-36.5,333.2-53.1,339.2z"/>
		<path id="path201" inkscape:connector-curvature="0" class="st0" d="M49.3,508.5c4.2,5.3,8.8,7.4,14.7,5c11.5-4.7,20-13,26.2-23.5
			c3.9-6.5,2.7-10.7-3.3-16.7C74.5,484.9,62,496.6,49.3,508.5z"/>
		<path id="path203" inkscape:connector-curvature="0" class="st0" d="M783-120.2c5.7-4.7,10.9-8.9,16.3-13.2
			c-3.8-4.8-7.4-3.5-11.1-1C781.7-130.1,780.4-126.9,783-120.2z"/>
		<path id="path205" inkscape:connector-curvature="0" class="st0" d="M51.4-95.5c-5.6-4-10.7-7.7-15.9-11.4
			c-3.5,4.9-3,8.2,1.3,11.7C42.5-90.6,46.6-90.5,51.4-95.5z"/>
		<path id="path207" inkscape:connector-curvature="0" class="st0" d="M852.5-51.6c-3.9-5.8-8.2-4.5-12.3-2.5
			c-4.6,2.3-9.1,4.9-6.9,12.3C839.7-45,845.8-48.2,852.5-51.6L852.5-51.6z"/>
		<path id="path209" inkscape:connector-curvature="0" class="st0" d="M195.9,585.6c7.1,2.6,9.7-1.6,11.7-5.8
			c2.1-4.4,4.2-9.1-2-13.3c-1.7,3.3-3.3,6.3-4.8,9.4C199.3,578.8,197.8,581.9,195.9,585.6z"/>
		<path id="path211" inkscape:connector-curvature="0" class="st0" d="M355.9,617.5c-0.9,7.4-1.8,14.3-2.6,21.4
			c7.2,0.8,8.2-3.9,9.2-8.2C363.9,623.7,362.1,620.2,355.9,617.5z"/>
		<path id="path213" inkscape:connector-curvature="0" class="st0" d="M292.6-334.4c-3.1,1.1-6,2.2-9.4,3.4
			c5.3,15.4,10.4,30.3,15.5,45.2c10.4-2.2,13.1-7.9,7.2-16c-2.7-3.7-7-6.2-10.1-9.7c-1.6-1.8-2.9-4.3-3.1-6.6
			C292.3-323.2,292.6-328.5,292.6-334.4z"/>
		<path id="path215" inkscape:connector-curvature="0" class="st0" d="M847.3,348.2c6.5,2.5,12.4,4.8,18.4,7.1
			c2.2-5.2,1.5-7.6-3-10.2C856.9,341.8,851.4,342.6,847.3,348.2z"/>
		<path id="path217" inkscape:connector-curvature="0" class="st0" d="M751-215.9c-4.6-3.9-8.6-7.2-13.1-10.9
			c-2.7,3.2-5.2,6.1-8.1,9.4c3.8,3.2,7.1,6.4,10.9,9.1c0.9,0.6,3.4,0.3,4.3-0.6C747.1-210.8,748.8-213.2,751-215.9L751-215.9z"/>
		<path id="path219" inkscape:connector-curvature="0" class="st0" d="M-29.9,258.1c-10.6,0-20,0-30.2,0c0.6,3.5,1.1,6.4,1.6,9.7
			C-49,264.6-40,261.5-29.9,258.1z"/>
		<path id="path221" inkscape:connector-curvature="0" class="st0" d="M63-125.7c-6.3-7-12.7-14-19.3-21.4c-2.2,2.8-4,5-6.3,7.9
			c8.6,4.9,16.8,9.6,25,14.2C62.6-125.3,62.8-125.5,63-125.7z"/>
		<path id="path223" inkscape:connector-curvature="0" class="st0" d="M316,647.6c3.5,0.8,6.1,1.3,9.7,2.1
			c0.8-9.6,1.6-18.7,2.3-27.8c-0.3-0.1-0.7-0.2-1-0.3C323.4,630,319.9,638.4,316,647.6z"/>
		<path id="path225" inkscape:connector-curvature="0" class="st0" d="M695.6-264c2.4,2.1,4,3.5,6.1,5.5c1.2-2,2.2-3.8,3.5-5.8
			c-5.5-3.2-10.6-6.1-17.3-9.9c-0.7,4.4-2.8,8.7-1.5,11.1C688.2-260,692.6-258.8,695.6-264z"/>
		<path id="path227" inkscape:connector-curvature="0" class="st0" d="M554.1-291.8c2.1-6.5,4-12.5,6.1-18.9c-1.6-0.7-3-1.2-4.3-1.8
			c-0.6,0.7-1.2,1-1.4,1.5c-1.5,4.6-2.7,9.4-4.6,13.8C548.2-293,549.8-291.9,554.1-291.8z"/>
		<path id="path229" inkscape:connector-curvature="0" class="st0" d="M260.3-265.4c6.2-2.1,11.9-4,17.9-6.1
			c-1.3-4.1-2.5-7.7-3.9-11.9c-6.1,2-11.7,3.9-18.1,5.9C257.6-273.5,258.8-269.9,260.3-265.4z"/>
		<path id="path231" inkscape:connector-curvature="0" class="st0" d="M429.4,531.8c32.9-0.3,63.3-14.6,90.1-37.4
			c21.8-18.5,39.1-40.7,53.6-65.2c2.1-3.6,4.5-4.6,8.4-4.7c27.9-0.4,55.3-4,81.7-13.2c36.8-12.8,66.6-34.1,84.5-69.8
			c12.1-24.1,15-49.8,12.3-76.3c-3.3-33.6-15.3-64.3-31.6-93.6c-2.1-3.8-2.4-6.7-0.2-10.7c16.5-29.4,28.5-60.3,31.8-94.1
			c4-41.2-5.9-78.1-35.2-108.3c-19.6-20.2-44-32.6-70.8-40.5c-22.2-6.5-44.9-9.9-68-9.8c-7.8,0-11.6-3-15.5-9.4
			c-18.2-29.8-40.5-56-70.1-75.4C477.8-191.5,453-200,426-199.8c-31.3,0.2-59,11.6-83.8,30.5c-24.9,19-44.4,42.7-60.4,69.4
			c-3.3,5.6-6.8,7.8-13.4,7.9c-27.7,0.2-54.8,4.2-81,13.7c-35.8,13-64.8,34.2-82.2,69.1c-11.8,23.7-14.8,49-12.4,75.1
			c3.2,34,15.2,65.2,31.8,94.7c2.2,4,2.3,6.8,0.1,10.7c-15,26.5-26.2,54.5-30.6,84.8c-5.2,35.3-0.9,69,19.4,99.4
			c16.7,25.1,40.2,41.6,67.9,52.6c28.7,11.4,58.7,15.8,89.4,16.3c4.6,0.1,7.3,1.4,9.8,5.5c18.3,30.7,40.7,57.7,70.7,77.8
			C374,522.9,398.8,531.7,429.4,531.8L429.4,531.8z M700.9,154.4c-25.7,0-50.3,0.2-74.8-0.2c-5.9-0.1-8.9,1.7-9.7,7.3
			c-0.7,4.7-3,6.2-8,6.2c-41.5-0.3-83-0.3-124.5-0.1c-4.8,0-7.8-1.4-9.7-5.6c-1.9-4.1-4.8-5.3-9.4-5.3c-24.2,0.2-48.4,0.3-72.6,0
			c-4.6-0.1-7.5,1.3-9.2,5.4c-1.7,4.1-4.7,5.4-9.2,5.4c-42.1-0.2-84.2-0.2-126.3,0.1c-4.9,0-8.3-1-10.1-5.8
			c-1.5-4.1-4.5-5.1-8.8-5.1c-24.2,0.2-48.4,0.1-72.6,0.1c-2.1,0-4.1,0.2-6.3,0.3c0,12.4,0,24.2,0,33.5c-1.1-2-3-6.2-5.5-9.9
			c-10.1-15.4-10.2-15.3,0.6-30.3c0.2-0.3,0.6-0.5,0.6-0.6c29.3,0,58.4,0.1,87.5-0.1c1.6,0,3.8-1.7,4.7-3.3
			c4-6.8,7.6-13.8,11.2-20.7c1.9-3.5,3.6-7.1,5.6-11c-42,0-83,0-124.9,0c4,8.1,7.8,15.6,11.4,23.1c0.8,1.6,1.6,4.1,0.9,5.2
			c-3.1,5.3-6.8,10.3-10.6,15.9c-1-1.6-1.8-2.4-2.2-3.5c-7.1-16.3-15.3-32.3-21.1-49.1c-8.6-24.7-12-50.4-8.1-76.6
			c6.3-41.9,29.3-72,66.2-91.9c22.4-12.1,46.7-18.5,71.8-21.6c11.4-1.4,22.8-1.8,35.2-2.8c-1.1,2.5-1.5,3.6-2,4.6
			c-21.5,40.4-35.5,83.3-44.3,128c-1.3,6.5-4.9,9.6-11.8,9.6c-26.4,0-52.7,0-79.1,0c-2.3,0-4.5,0-6.8,0c0,17.8,0,34.6,0,51.5
			c42.3,0,84.2,0,126.3,0c0-17.2,0-34.1,0-51.9c-8.2,0-15.9,0-23.5,0c-0.3-0.6-0.7-1.2-1-1.9c1.6-1.1,3.3-2.1,4.8-3.3
			C291.9,3.6,354.3-32.2,422.9-57.1c2.2-0.8,5.1-0.8,7.3,0c68.6,24.9,131,60.7,187.1,107.5c1.5,1.3,2.7,2.8,5.4,5.6
			c-9.1,0-16.3,0-23.5,0c0,17.9,0,35,0,52.2c41.1,0,81.7,0,122.3,0c0-17.5,0-34.5,0-52.3c-2.6,0-4.9,0-7.2,0c-25.6,0-51.2,0-76.7,0
			c-6.3,0-10.1-3.2-11.3-9.4c-6.9-35.2-17.1-69.3-31.8-102c-4.4-9.9-9.3-19.7-14.1-29.9c1.2-0.1,1.9-0.3,2.7-0.3
			c34.4,0.6,67.8,5.9,98.8,21.3C729.8-40.6,754.6-1.7,754.4,52c-0.1,31.2-9.4,60.3-22.7,88.2c-3,6.3-6.3,12.3-9.9,19.3
			c-4.2-6.3-7.4-11.6-11.1-16.6c-2.1-2.8-1.9-4.9-0.2-7.8c3.7-6.1,6.9-12.5,10.7-19.5c-41,0-81,0-121.9,0
			c5.8,10.5,11,20.4,16.6,29.9c0.8,1.3,3.6,2,5.5,2c26,0.1,51.9,0.1,77.9,0.1c2.1,0,4.2-0.4,6.7-0.7c3.4,5.3,7,10.7,10.2,16.2
			c0.8,1.3,1.2,3.6,0.5,4.7c-4.6,7.7-9.5,15.1-14.4,22.6c-0.5-0.1-0.9-0.3-1.4-0.4C700.9,178.5,700.9,166.8,700.9,154.4z
			 M622.9,275.8c-2.6,2.7-3.8,4.4-5.4,5.7c-55.6,46.3-117.3,82.1-185.4,106.8c-3.5,1.3-8.3,1.2-11.8-0.1
			c-67.8-24.8-129.4-60.4-184.8-106.7c-1.6-1.3-2.8-3.2-4.9-5.7C361.7,275.8,491.3,275.8,622.9,275.8z M284.6-92.8
			c20.6-33.8,44.5-63.3,78.8-82.8c38.8-22.1,78.6-23.8,118.9-4c27.4,13.5,48.7,34.2,66.9,58.3c6.8,9,12.8,18.5,19.3,27.8
			c-1.4,0.8-1.7,1.1-2.1,1.2c-1.2,0.1-2.3,0.2-3.5,0.3c-45.5,1.5-89.5,11.2-132.6,25.5c-2.3,0.8-5.4,0.6-7.8-0.2
			c-32.2-10.5-64.9-18.7-98.5-22.6C311.2-90.9,298.5-91.6,284.6-92.8z M284.8,425c2.4-0.3,3.7-0.5,5.1-0.6
			c45.5-2,89.5-11.3,132.6-25.6c3-1,7-0.5,10.2,0.5c35,11.6,70.7,19.9,107.4,23.3c9.1,0.8,18.2,1.5,27.5,2.3
			c-0.3,1.1-0.3,1.7-0.6,2.2c-18.3,30.2-40.2,57.3-70.4,76.5c-42.6,27-86.6,29.6-131.2,5.3c-29.7-16.1-51.8-40.5-70.6-68.1
			C291.4,435.8,288.4,430.7,284.8,425z M581.1,419.1c-0.2-0.8-0.4-1.5-0.6-2.3c0.4-0.9,0.7-1.8,1.1-2.6
			c21.5-40.5,35.7-83.7,44.5-128.6c1.1-5.8,5.8-9.8,11.7-10.2c5.3-0.4,10.6-0.7,15.8-1.5c19.3-2.7,34.4-11,40.3-31
			c1.9-6.4,3.6-13,4.1-19.5c0.8-12.8,3.5-24.4,12.5-34.3c4.3-4.6,7.2-10.5,11.5-16.9c4.7,9.6,9.1,18.1,13,26.8
			c13.9,31.5,22.4,64.1,18.5,98.9c-3.7,33-18.3,60.2-44.2,81.1c-22.8,18.5-49.5,28.8-78.1,33.8C614.7,415.8,597.9,417.1,581.1,419.1
			L581.1,419.1z M272.4,417.9c-2.2,0-4.2,0.1-6.1,0c-29.1-0.9-57.4-5.7-84.6-16.5c-54-21.4-85-67.5-83.1-124.5
			c0.9-27.4,8.3-53.4,19.6-78.3c3.9-8.6,8.3-17.1,12.9-26.4c4.4,6.7,7.6,12.6,11.9,17.7c5.9,7.1,8.6,14.6,8.8,24
			c0.2,8.3,2.1,16.7,4.2,24.9c4.7,18.7,16.8,30.2,35.9,33.8c7.3,1.4,14.8,2.1,22.2,2.7c7.6,0.6,11.5,4.1,13,11.5
			c5.8,28.9,13.6,57.3,24.8,84.6C258.2,386.8,265.3,401.9,272.4,417.9z M619.4,42C563.8-1.8,503.7-36.5,436.3-61.8
			c10.5-3.1,19.3-5.9,28.2-8.3c33.7-9,67.9-14.8,102.8-15.8c3.9-0.1,5.8,1.1,7.7,4.6c12.9,24.1,23.4,49.3,31.4,75.4
			C611.1,9.9,615,26,619.4,42L619.4,42z M234.8,42.9c-0.3-0.8-0.5-1-0.4-1.2c9-42.4,22.6-83.1,43-121.6c2.5-4.7,5.2-6.2,10.4-6
			c34.5,1.3,68.3,6.8,101.6,16c8.6,2.4,17.1,5,25.6,7.5C349.2-36.5,289.2-1.7,234.8,42.9z M436,393.9
			c67.7-25.3,127.7-60.1,183.4-105.6c-2.3,9.4-4.1,17-6,24.6c-8.8,35-21.3,68.5-38.3,100.3c-1.9,3.6-4.1,4.9-8.2,4.8
			c-33.3-1-66-6.3-98.2-14.7C458.2,400.6,447.9,397.4,436,393.9z M233.9,288.4c55.6,45.6,115.7,80.3,182.5,105.3
			c-2.5,0.9-3.7,1.4-5,1.7c-19.2,5-38.1,11.2-57.6,14.6c-22.8,3.9-46,5.4-69,7.7c-1.8,0.2-4.7-1.3-5.5-2.8
			C257.5,375.7,243.5,333.7,233.9,288.4z"/>
		<path id="path253" inkscape:connector-curvature="0" class="st0" d="M489.3,55.9c-2.4,0-4.1,0-5.9,0c-37.5,0-75.1,0.1-112.6-0.1
			c-5.5,0-7,1.6-6.8,6.9c0.3,15.1,0.1,30.1,0.1,45.6c42,0,83.4,0,125.2,0C489.3,91.1,489.3,73.9,489.3,55.9z"/>
		<path id="path255" inkscape:connector-curvature="0" class="st0" d="M488.6,115.6c-41.5,0-81.9,0-123.3,0
			c5.4,10,10.7,19.1,15.3,28.5c2.2,4.4,4.8,6.1,9.9,6c25.6-0.3,51.1-0.2,76.7-0.1c3.6,0,5.5-1,7.1-4.4
			C478.7,135.9,483.5,126.2,488.6,115.6z"/>
	</g>
</g>
</svg>
