<svg xmlns="http://www.w3.org/2000/svg" style="display: none;">
  <symbol id="more" viewBox="0 0 32 32">
    <title>more</title>
    <path d="m29 8h-26c-1.1045 0-2-.8955-2-2s.8955-2 2-2h26c1.1045 0 2 .8955 2 2s-.8955 2-2 2z" />
    <path d="m29 28h-26c-1.1045 0-2-.8955-2-2s.8955-2 2-2h26c1.1045 0 2 .8955 2 2s-.8955 2-2 2z" />
    <path d="m29 18h-26c-1.1045 0-2-.8955-2-2s.8955-2 2-2h26c1.1045 0 2 .8955 2 2s-.8955 2-2 2z" />
  </symbol>
  <symbol id="satellite" viewBox="0 0 512 512">
    <title>satellite</title>
    <path d="M504.447,367.146L364.23,286.923c-5.875-3.361-13.272-2.371-18.056,2.413l-17.809,17.81l-23.539-23.54l68.686-68.69 l-78.753-78.753l-68.683,68.688l-21.207-21.208l17.81-17.812c4.785-4.785,5.773-12.182,2.413-18.055L144.873,7.554 c-3.92-6.852-12.481-9.493-19.582-6.04L8.463,58.348c-4.361,2.121-7.428,6.222-8.231,11.005c-0.803,4.783,0.756,9.66,4.186,13.09 l140.216,140.223c2.813,2.814,6.628,4.394,10.607,4.394c3.979,0,7.794-1.58,10.607-4.394l17.809-17.81l23.982,23.984 c-5.493,12.739-6.022,27.121-1.568,40.172c-12.302-6.657-26.135-10.199-40.515-10.199c-22.787,0-44.211,8.874-60.324,24.988 c-5.857,5.858-5.857,15.355,0,21.213l39.112,39.113l-9.958,9.958c-5.857,5.858-5.857,15.355,0.001,21.213 c2.929,2.93,6.768,4.394,10.606,4.394s7.678-1.465,10.607-4.394l9.957-9.957l39.11,39.112c2.813,2.814,6.628,4.394,10.607,4.394 s7.794-1.58,10.607-4.394c27.254-27.255,32.16-68.51,14.751-100.825c5.749,1.97,11.844,3.007,18.1,3.007 c7.741,0,15.235-1.582,22.131-4.569l26.292,26.293l-17.81,17.811c-5.858,5.857-5.858,15.354,0,21.213l140.216,140.223 c2.836,2.836,6.661,4.394,10.605,4.394c0.825,0,1.656-0.068,2.484-0.207c4.783-0.803,8.884-3.87,11.006-8.232l56.832-116.834 C513.94,379.627,511.299,371.067,504.447,367.146z" />
    <path d="M144.992,479.692c-63.407,0-114.993-51.589-114.993-115c0-8.284-6.716-15-15-15c-8.284,0-15,6.716-15,15 c0,79.953,65.043,145,144.992,145c8.284,0,15-6.716,15-15S153.277,479.692,144.992,479.692z" />
    <path d="M144.992,414.693c-27.568,0-49.996-22.43-49.996-50c0-8.284-6.716-15-15-15c-8.284,0-15,6.716-15,15 c0,44.112,35.886,80,79.996,80c8.284,0,15-6.715,15-15C159.992,421.409,153.277,414.693,144.992,414.693z" />
    <path d="M402.766,185.66c21.442-21.444,21.442-56.337,0-77.781c-0.001,0-0.001,0-0.001,0l-0.972-0.973 c-10.389-10.389-24.199-16.109-38.889-16.109c-14.691,0-28.502,5.721-38.889,16.109l-8.043,8.044l78.753,78.752L402.766,185.66z" />
  </symbol>
  <symbol id="customer-satisfaction" viewBox="0 0 512 512">
    <title>customer-satisfaction</title>
    <path clip-rule="evenodd" d="m490.941 78.038v433.962h-82.58v-433.962h-21.058l62.348-78.038 62.351 78.038c-7.02 0-14.04 0-21.061 0zm-238.046 31.653-40.534 23.072 9.406-45.684-34.453-31.415 46.342-5.183 19.239-42.485 19.243 42.481 46.339 5.187-34.452 31.411 9.404 45.688zm-148.181-22.616 9.406 45.689-40.533-23.074-40.537 23.074 9.407-45.684-34.455-31.416 46.343-5.183 19.238-42.483 19.243 42.48 46.337 5.187zm-22.136 424.925h-82.581v-159.714h82.581zm136.121 0h-82.581v-250.759h82.581zm136.121 0h-82.581v-341.804h82.581z" fill-rule="evenodd" />
  </symbol>
  <symbol id="location" viewBox="0 0 513.082 513.082">
    <title>location</title>
    <path d="m1.029 272.673c6.449.669 12.728 2.32 18.738 4.937l45.598 19.864c11.381 4.958 24.035 3.379 33.849-4.229 9.813-7.605 14.5-19.465 12.537-31.725-3.122-19.504 2.828-38.961 16.323-53.382l31.412-33.568c5.82-6.22 9.025-14.336 9.025-22.854v-31.422c0-30.139 21.451-56.305 51.004-62.216l23.273-4.655c15.581-3.115 26.889-16.909 26.889-32.798v-19.378c-4.36-.219-8.739-.333-13.136-.333-68.379 0-132.666 26.637-181.018 75.004-48.353 48.367-74.982 112.677-74.982 181.08 0 5.252.176 10.476.488 15.675z" />
    <path d="m504.574 320.765-7.167-5.568c-6.985-5.428-15.966-7.545-24.64-5.803l-28.892 5.796c-18.36 3.683-37.717-1.501-51.777-13.868-6.623-5.825-15.091-8.428-23.843-7.343-8.752 1.09-16.321 5.694-21.312 12.966l-31.125 45.343c-7.505 10.935-18.589 19.205-31.208 23.288l-20.098 6.502c-13.688 4.429-22.461 18.021-20.859 32.318l2.839 25.343c.673 6.003.442 12.058-.686 17.995l-10.346 54.482c6.976.565 14.005.867 21.081.867 68.379 0 132.666-26.637 181.018-75.004 32.942-32.953 55.79-73.309 67.015-117.314z" />
    <path d="m205.712 508.059 10.62-55.924c.568-2.988.684-6.035.345-9.057l-2.839-25.344c-3.181-28.403 14.246-55.403 41.438-64.201l20.098-6.502c6.352-2.056 11.931-6.219 15.709-11.723l31.126-45.344c9.772-14.235 25.204-23.623 42.338-25.758 17.136-2.129 34.398 3.184 47.363 14.586 7.078 6.227 16.821 8.832 26.064 6.981l28.892-5.796c15.178-3.043 30.828-.139 43.827 7.966 1.22-10.193 1.847-20.522 1.847-30.947 0-32.693-6.098-64.445-17.728-93.975-9.053 11.264-18.534 22.023-27.553 31.728-6.759 7.274-16.327 11.446-26.251 11.446-9.923 0-19.491-4.172-26.251-11.446-33.757-36.322-73.998-87.413-73.998-124.524 0-18.233 4.898-35.344 13.444-50.089-17.457-7.202-35.724-12.44-54.526-15.614v16.104c0 30.141-21.451 56.306-51.005 62.216l-23.273 4.655c-15.58 3.116-26.888 16.909-26.888 32.798v31.422c0 16.157-6.08 31.553-17.12 43.352l-31.413 33.569c-7.115 7.603-10.251 17.859-8.605 28.141 3.723 23.254-5.167 45.751-23.781 60.179-11.449 8.873-24.936 13.424-38.646 13.424-8.581 0-17.25-1.783-25.562-5.403l-45.597-19.865c-.97-.423-1.956-.792-2.951-1.119 9.314 50.507 33.602 96.986 70.688 134.083 36.141 36.153 81.187 60.159 130.188 69.981z" />
    <path d="m370.759 70.225c0 20.735 24.663 59.652 65.974 104.104 1.511 1.625 3.327 1.868 4.275 1.868.949 0 2.765-.243 4.275-1.868 41.312-44.452 65.975-83.369 65.975-104.104 0-38.722-31.514-70.225-70.25-70.225-38.735 0-70.249 31.503-70.249 70.225zm70.25 17.873c-9.456 0-16.458-7.729-16.867-16.867-.408-9.109 8.044-16.867 16.867-16.867 9.456 0 16.458 7.729 16.867 16.867.408 9.109-8.045 16.867-16.867 16.867z" />
  </symbol>
  <symbol id="euro-money" viewBox="0 0 66 66">
    <title>euro-money</title>
    <path d="m2.4 23.8h60.3c.6 0 1-.4 1-1s-.4-1-1-1h-60.3c-.6 0-1 .4-1 1s.5 1 1 1z" />
    <path d="m5 17.9h55.1c.6 0 1-.4 1-1s-.4-1-1-1h-55.1c-.6 0-1 .4-1 1s.5 1 1 1z" />
    <path d="m8 12.1h49.1c.6 0 1-.4 1-1s-.4-1-1-1h-49.1c-.6 0-1 .4-1 1s.5 1 1 1z" />
    <path d="m12.3 6.2h40.6c.6 0 1-.4 1-1s-.4-1-1-1h-40.6c-.6 0-1 .4-1 1s.4 1 1 1z" />
    <path d="m52.5 36h-39c-.4 2.2-2.1 3.9-4.3 4.3v9.2c2.2.4 3.9 2.1 4.3 4.3h39c.4-2.2 2.1-3.9 4.3-4.3v-9.2c-2.1-.4-3.9-2.1-4.3-4.3zm-34.6 12.6c-2 0-3.7-1.7-3.7-3.7s1.7-3.7 3.7-3.7 3.7 1.7 3.7 3.7-1.7 3.7-3.7 3.7zm17.9 2.8c-3.6 0-6.1-2.2-6.5-5.4h-2.2c-.6 0-1-.4-1-1s.4-1 1-1h2.1c.3-3.3 2.7-5.4 6.1-5.4 1.7 0 3 .4 3.5.7l-.4 1.7c-.6-.3-1.5-.6-2.7-.6-2.2 0-3.8 1.4-4.2 3.6h3.6c.6 0 1 .4 1 1s-.4 1-1 1h-3.6c.4 2.1 1.8 3.6 4.3 3.6 1.2 0 2.1-.3 2.6-.6l.5 1.7c-.6.3-1.8.7-3.1.7zm12.3-2.8c-2 0-3.7-1.7-3.7-3.7s1.7-3.7 3.7-3.7 3.7 1.7 3.7 3.7-1.6 3.7-3.7 3.7z" />
    <circle cx="17.9" cy="44.9" r="1.7" />
    <circle cx="48.1" cy="44.9" r="1.7" />
    <path d="m62.5 28.1h-59c-1.3 0-2.3 1-2.3 2.3v29.2c0 1.3 1 2.3 2.3 2.3h59c1.3 0 2.3-1 2.3-2.3v-29.3c0-1.2-1-2.2-2.3-2.2zm-3.7 22.4c0 .6-.4 1-1 1-1.9 0-3.4 1.5-3.4 3.4 0 .6-.4 1-1 1h-40.8c-.6 0-1-.4-1-1 0-1.9-1.5-3.4-3.4-3.4-.6 0-1-.4-1-1v-11.1c0-.6.4-1 1-1 1.9 0 3.4-1.5 3.4-3.4 0-.6.4-1 1-1h40.9c.6 0 1 .4 1 1 0 1.9 1.5 3.4 3.4 3.4.6 0 1 .4 1 1v11.1z" />
  </symbol>
  <symbol id="right-arrow" viewBox="0 0 492.004 492.004">
    <title>right-arrow</title>
    <path d="M484.14,226.886L306.46,49.202c-5.072-5.072-11.832-7.856-19.04-7.856c-7.216,0-13.972,2.788-19.044,7.856l-16.132,16.136 c-5.068,5.064-7.86,11.828-7.86,19.04c0,7.208,2.792,14.2,7.86,19.264L355.9,207.526H26.58C11.732,207.526,0,219.15,0,234.002 v22.812c0,14.852,11.732,27.648,26.58,27.648h330.496L252.248,388.926c-5.068,5.072-7.86,11.652-7.86,18.864 c0,7.204,2.792,13.88,7.86,18.948l16.132,16.084c5.072,5.072,11.828,7.836,19.044,7.836c7.208,0,13.968-2.8,19.04-7.872 l177.68-177.68c5.084-5.088,7.88-11.88,7.86-19.1C492.02,238.762,489.228,231.966,484.14,226.886z" />
  </symbol>
  <symbol id="space-suit" viewBox="0 0 64 64">
    <title>space-suit</title>
    <path d="m23.788 37a15.892 15.892 0 0 1 -8.788-14c0-8.243 6.99-14 17-14s17 5.757 17 14a15.892 15.892 0 0 1 -8.788 14h6.05a19.994 19.994 0 1 0 -34.262-14 19.838 19.838 0 0 0 5.738 14z" />
    <path d="m47 23c0-8.289-7.534-12-15-12s-15 3.711-15 12c0 7.72 6.729 14 15 14s15-6.28 15-14zm-15-8v-2c7.532 0 13 4.405 13 10.474h-2c0-4.99-4.523-8.474-11-8.474z" />
    <rect height="4" rx="1" width="38" x="13" y="39" />
    <path d="m60.974 61a18.444 18.444 0 0 0 -11.191-16h-35.566a18.444 18.444 0 0 0 -11.191 16h11.974v-3a7.009 7.009 0 0 1 7-7h20a7.009 7.009 0 0 1 7 7v3z" />
    <path d="m9 28h1.589a21.678 21.678 0 0 1 -.009-10h-1.58a2 2 0 0 0 -2 2v6a2 2 0 0 0 2 2z" />
    <path d="m55 28a2 2 0 0 0 2-2v-6a2 2 0 0 0 -2-2h-1.58a21.678 21.678 0 0 1 -.009 10z" />
    <path d="m42 53h-20a5.006 5.006 0 0 0 -5 5v3h30v-3a5.006 5.006 0 0 0 -5-5z" />
  </symbol>
</svg>